<?xml version="1.0" encoding="utf-8"?>
<svg width="261" height="80" viewBox="0 0 261 80" fill="none" xmlns="http://www.w3.org/2000/svg">
  <path d="M 127.351 34.889 C 127.351 36.002 127.22 37.159 126.959 38.365 C 126.697 39.569 126.33 40.742 125.858 41.89 C 125.387 43.034 124.817 44.116 124.155 45.135 C 123.491 46.155 122.751 47.035 121.94 47.784 L 120.16 46.817 C 120.43 46.332 120.678 45.786 120.901 45.178 C 121.125 44.568 121.332 43.929 121.52 43.255 C 121.706 42.583 121.869 41.891 122.009 41.183 C 122.148 40.472 122.269 39.764 122.366 39.059 C 122.465 38.352 122.537 37.667 122.586 37.005 C 122.632 36.343 122.655 35.718 122.655 35.138 C 122.655 34.813 122.645 34.457 122.627 34.076 C 122.609 33.69 122.568 33.308 122.509 32.925 C 122.448 32.543 122.355 32.176 122.235 31.825 C 122.112 31.474 121.947 31.163 121.735 30.886 C 121.525 30.612 121.263 30.391 120.952 30.225 C 120.637 30.064 120.261 29.981 119.822 29.981 C 119.393 29.981 119.025 30.096 118.722 30.323 C 118.419 30.553 118.16 30.85 117.947 31.213 C 117.73 31.577 117.558 31.989 117.434 32.448 C 117.308 32.907 117.209 33.366 117.147 33.828 C 117.08 34.292 117.035 34.734 117.011 35.154 C 116.988 35.575 116.976 35.928 116.976 36.22 L 116.976 44.335 L 112.254 44.335 L 112.254 36.795 C 112.254 36.467 112.255 36.072 112.267 35.61 C 112.275 35.148 112.264 34.664 112.233 34.159 C 112.198 33.654 112.139 33.151 112.051 32.651 C 111.962 32.153 111.819 31.707 111.629 31.312 C 111.437 30.92 111.179 30.599 110.851 30.353 C 110.524 30.105 110.111 29.981 109.618 29.981 C 109.197 29.981 108.843 30.097 108.557 30.332 C 108.274 30.564 108.034 30.866 107.844 31.235 C 107.653 31.607 107.505 32.02 107.395 32.482 C 107.289 32.944 107.207 33.408 107.157 33.871 C 107.105 34.335 107.076 34.774 107.067 35.189 C 107.056 35.603 107.053 35.948 107.053 36.22 L 107.053 44.335 L 102.3 44.335 L 102.3 28.145 L 104.122 28.145 L 105.859 31.915 C 106.254 30.609 106.872 29.586 107.718 28.851 C 108.562 28.119 109.687 27.751 111.09 27.751 C 112.351 27.751 113.396 28.014 114.231 28.537 C 115.06 29.06 115.714 29.91 116.193 31.087 C 116.463 30.574 116.765 30.112 117.096 29.702 C 117.429 29.291 117.798 28.94 118.203 28.648 C 118.611 28.36 119.06 28.137 119.557 27.984 C 120.052 27.83 120.599 27.751 121.197 27.751 C 122.301 27.751 123.24 27.933 124.02 28.292 C 124.802 28.651 125.438 29.148 125.936 29.784 C 126.43 30.418 126.789 31.174 127.013 32.048 C 127.24 32.923 127.351 33.869 127.351 34.889 Z M 146.807 44.335 L 142.071 44.335 L 142.071 42.401 C 141.509 43.168 140.834 43.735 140.045 44.106 C 139.255 44.473 138.388 44.658 137.444 44.658 C 136.209 44.658 135.108 44.44 134.134 43.999 C 133.162 43.558 132.339 42.962 131.667 42.2 C 130.993 41.436 130.48 40.541 130.126 39.514 C 129.771 38.485 129.593 37.382 129.593 36.205 C 129.593 35.026 129.771 33.925 130.126 32.897 C 130.48 31.869 130.993 30.974 131.667 30.212 C 132.339 29.451 133.162 28.848 134.134 28.409 C 135.108 27.971 136.209 27.751 137.444 27.751 C 138.068 27.751 138.665 27.845 139.23 28.033 C 139.794 28.219 140.314 28.484 140.786 28.825 C 141.258 29.168 141.673 29.576 142.034 30.058 C 142.394 30.538 142.676 31.074 142.881 31.663 L 144.984 28.145 L 146.807 28.145 L 146.807 44.335 Z M 142.042 36.205 C 142.042 35.787 142.02 35.341 141.979 34.875 C 141.935 34.407 141.865 33.943 141.76 33.485 C 141.658 33.026 141.516 32.589 141.332 32.176 C 141.152 31.759 140.919 31.389 140.634 31.069 C 140.347 30.746 140.004 30.491 139.603 30.302 C 139.199 30.115 138.732 30.023 138.201 30.023 C 137.668 30.023 137.206 30.118 136.813 30.31 C 136.418 30.502 136.082 30.759 135.803 31.082 C 135.521 31.404 135.291 31.774 135.109 32.197 C 134.926 32.617 134.783 33.054 134.682 33.513 C 134.578 33.974 134.505 34.433 134.465 34.895 C 134.421 35.356 134.401 35.795 134.401 36.205 C 134.401 36.616 134.421 37.056 134.465 37.523 C 134.505 37.99 134.578 38.452 134.682 38.911 C 134.783 39.369 134.926 39.808 135.109 40.228 C 135.291 40.649 135.521 41.019 135.803 41.342 C 136.082 41.665 136.418 41.922 136.813 42.114 C 137.206 42.306 137.668 42.401 138.201 42.401 C 138.686 42.401 139.119 42.301 139.498 42.1 C 139.873 41.9 140.207 41.631 140.493 41.293 C 140.776 40.959 141.019 40.573 141.214 40.146 C 141.411 39.716 141.57 39.272 141.691 38.813 C 141.811 38.354 141.899 37.9 141.958 37.446 C 142.012 36.992 142.042 36.579 142.042 36.205 Z M 164.694 39.165 C 164.694 39.875 164.592 40.505 164.388 41.057 C 164.183 41.608 163.901 42.086 163.545 42.491 C 163.191 42.899 162.768 43.24 162.284 43.517 C 161.799 43.793 161.278 44.014 160.722 44.181 C 160.165 44.35 159.583 44.47 158.975 44.547 C 158.368 44.621 157.765 44.658 157.167 44.658 C 156.364 44.658 155.654 44.606 155.036 44.506 C 154.419 44.401 153.831 44.235 153.27 44.006 C 152.708 43.778 152.151 43.48 151.595 43.116 C 151.038 42.752 150.418 42.308 149.738 41.785 L 152.5 39.528 C 152.752 40.005 153.087 40.437 153.502 40.824 C 153.916 41.213 154.349 41.547 154.796 41.827 C 155.246 42.106 155.68 42.322 156.103 42.472 C 156.521 42.621 156.864 42.696 157.126 42.696 C 157.341 42.696 157.583 42.69 157.854 42.675 C 158.126 42.66 158.401 42.634 158.681 42.593 C 158.962 42.549 159.237 42.485 159.506 42.401 C 159.78 42.316 160.019 42.201 160.231 42.059 C 160.442 41.913 160.608 41.731 160.735 41.513 C 160.86 41.291 160.926 41.027 160.926 40.719 C 160.926 40.403 160.842 40.124 160.68 39.885 C 160.514 39.647 160.303 39.439 160.042 39.262 C 159.78 39.083 159.48 38.934 159.144 38.813 C 158.809 38.692 158.468 38.583 158.129 38.49 C 157.786 38.397 157.459 38.315 157.139 38.246 C 156.821 38.175 156.547 38.106 156.313 38.041 C 155.882 37.921 155.428 37.797 154.952 37.67 C 154.477 37.544 154.003 37.398 153.539 37.238 C 153.069 37.072 152.621 36.879 152.197 36.654 C 151.772 36.429 151.4 36.161 151.074 35.848 C 150.753 35.536 150.497 35.166 150.305 34.741 C 150.113 34.315 150.018 33.818 150.018 33.249 C 150.018 32.2 150.225 31.323 150.641 30.62 C 151.057 29.914 151.605 29.348 152.29 28.923 C 152.97 28.497 153.747 28.196 154.615 28.019 C 155.485 27.84 156.367 27.751 157.267 27.751 C 157.882 27.751 158.531 27.817 159.214 27.942 C 159.896 28.068 160.558 28.255 161.206 28.502 C 161.85 28.748 162.453 29.051 163.012 29.405 C 163.571 29.759 164.04 30.169 164.415 30.627 L 161.653 32.897 C 161.447 32.336 161.178 31.854 160.847 31.453 C 160.514 31.051 160.155 30.723 159.767 30.464 C 159.38 30.207 158.983 30.018 158.577 29.897 C 158.168 29.774 157.791 29.715 157.449 29.715 C 157.111 29.715 156.732 29.73 156.313 29.756 C 155.893 29.784 155.496 29.863 155.128 29.996 C 154.759 30.125 154.444 30.323 154.19 30.591 C 153.931 30.858 153.803 31.223 153.803 31.69 C 153.803 32.027 153.879 32.315 154.034 32.553 C 154.188 32.792 154.392 32.997 154.644 33.171 C 154.896 33.343 155.183 33.487 155.505 33.605 C 155.828 33.721 156.157 33.825 156.493 33.912 C 156.831 34.003 157.157 34.08 157.475 34.144 C 157.793 34.21 158.08 34.28 158.331 34.354 C 158.76 34.476 159.216 34.6 159.698 34.726 C 160.18 34.851 160.653 34.998 161.119 35.162 C 161.588 35.325 162.039 35.516 162.473 35.736 C 162.907 35.954 163.289 36.225 163.617 36.541 C 163.943 36.859 164.206 37.229 164.401 37.656 C 164.596 38.082 164.694 38.583 164.694 39.165 Z M 181.616 39.165 C 181.616 39.875 181.514 40.505 181.308 41.057 C 181.103 41.608 180.821 42.086 180.467 42.491 C 180.113 42.899 179.693 43.24 179.204 43.517 C 178.719 43.793 178.198 44.014 177.642 44.181 C 177.087 44.35 176.505 44.47 175.897 44.547 C 175.29 44.621 174.688 44.658 174.088 44.658 C 173.287 44.658 172.574 44.606 171.956 44.506 C 171.341 44.401 170.751 44.235 170.192 44.006 C 169.63 43.778 169.072 43.48 168.517 43.116 C 167.958 42.752 167.341 42.308 166.66 41.785 L 169.422 39.528 C 169.672 40.005 170.007 40.437 170.423 40.824 C 170.838 41.213 171.272 41.547 171.72 41.827 C 172.169 42.106 172.603 42.322 173.023 42.472 C 173.443 42.621 173.785 42.696 174.046 42.696 C 174.262 42.696 174.505 42.69 174.775 42.675 C 175.047 42.66 175.321 42.634 175.603 42.593 C 175.882 42.549 176.159 42.485 176.431 42.401 C 176.701 42.316 176.939 42.201 177.151 42.059 C 177.36 41.913 177.529 41.731 177.655 41.513 C 177.783 41.291 177.846 41.027 177.846 40.719 C 177.846 40.403 177.764 40.124 177.601 39.885 C 177.437 39.647 177.224 39.439 176.964 39.262 C 176.7 39.083 176.4 38.934 176.065 38.813 C 175.728 38.692 175.388 38.583 175.051 38.49 C 174.708 38.397 174.377 38.315 174.062 38.246 C 173.743 38.175 173.466 38.106 173.234 38.041 C 172.803 37.921 172.349 37.797 171.874 37.67 C 171.395 37.544 170.925 37.398 170.458 37.238 C 169.99 37.072 169.545 36.879 169.12 36.654 C 168.695 36.429 168.32 36.161 167.997 35.848 C 167.674 35.536 167.417 35.166 167.227 34.741 C 167.033 34.315 166.938 33.818 166.938 33.249 C 166.938 32.2 167.145 31.323 167.563 30.62 C 167.979 29.914 168.528 29.348 169.21 28.923 C 169.894 28.497 170.667 28.196 171.536 28.019 C 172.405 27.84 173.289 27.751 174.188 27.751 C 174.803 27.751 175.452 27.817 176.134 27.942 C 176.816 28.068 177.48 28.255 178.126 28.502 C 178.77 28.748 179.372 29.051 179.934 29.405 C 180.495 29.759 180.963 30.169 181.337 30.627 L 178.575 32.897 C 178.368 32.336 178.101 31.854 177.767 31.453 C 177.437 31.051 177.077 30.723 176.688 30.464 C 176.3 30.207 175.903 30.018 175.498 29.897 C 175.092 29.774 174.715 29.715 174.369 29.715 C 174.033 29.715 173.652 29.73 173.234 29.756 C 172.812 29.784 172.418 29.863 172.048 29.996 C 171.679 30.125 171.366 30.323 171.11 30.591 C 170.851 30.858 170.723 31.223 170.723 31.69 C 170.723 32.027 170.8 32.315 170.954 32.553 C 171.11 32.792 171.31 32.997 171.566 33.171 C 171.818 33.343 172.105 33.487 172.426 33.605 C 172.748 33.721 173.079 33.825 173.415 33.912 C 173.749 34.003 174.079 34.08 174.397 34.144 C 174.715 34.21 175 34.28 175.251 34.354 C 175.68 34.476 176.137 34.6 176.619 34.726 C 177.1 34.851 177.573 34.998 178.041 35.162 C 178.509 35.325 178.96 35.516 179.393 35.736 C 179.827 35.954 180.209 36.225 180.537 36.541 C 180.865 36.859 181.126 37.229 181.322 37.656 C 181.517 38.082 181.616 38.583 181.616 39.165 Z M 200.904 44.335 L 196.165 44.335 L 196.165 42.401 C 195.607 43.168 194.931 43.735 194.141 44.106 C 193.351 44.473 192.485 44.658 191.54 44.658 C 190.307 44.658 189.204 44.44 188.232 43.999 C 187.26 43.558 186.435 42.962 185.765 42.2 C 185.091 41.436 184.578 40.541 184.224 39.514 C 183.866 38.485 183.691 37.382 183.691 36.205 C 183.691 35.026 183.866 33.925 184.224 32.897 C 184.578 31.869 185.091 30.974 185.765 30.212 C 186.435 29.451 187.26 28.848 188.232 28.409 C 189.204 27.971 190.307 27.751 191.54 27.751 C 192.164 27.751 192.761 27.845 193.326 28.033 C 193.894 28.219 194.412 28.484 194.884 28.825 C 195.356 29.168 195.77 29.576 196.131 30.058 C 196.49 30.538 196.774 31.074 196.98 31.663 L 199.082 28.145 L 200.904 28.145 L 200.904 44.335 Z M 196.138 36.205 C 196.138 35.787 196.118 35.341 196.075 34.875 C 196.034 34.407 195.961 33.943 195.859 33.485 C 195.756 33.026 195.613 32.589 195.429 32.176 C 195.248 31.759 195.013 31.389 194.73 31.069 C 194.444 30.746 194.1 30.491 193.698 30.302 C 193.297 30.115 192.83 30.023 192.297 30.023 C 191.764 30.023 191.302 30.118 190.908 30.31 C 190.517 30.502 190.181 30.759 189.9 31.082 C 189.62 31.404 189.386 31.774 189.207 32.197 C 189.022 32.617 188.882 33.054 188.779 33.513 C 188.676 33.974 188.602 34.433 188.561 34.895 C 188.519 35.356 188.497 35.795 188.497 36.205 C 188.497 36.616 188.519 37.056 188.561 37.523 C 188.602 37.99 188.676 38.452 188.779 38.911 C 188.882 39.369 189.022 39.808 189.207 40.228 C 189.386 40.649 189.62 41.019 189.9 41.342 C 190.181 41.665 190.517 41.922 190.908 42.114 C 191.302 42.306 191.764 42.401 192.297 42.401 C 192.784 42.401 193.215 42.301 193.595 42.1 C 193.972 41.9 194.305 41.631 194.59 41.293 C 194.874 40.959 195.115 40.573 195.31 40.146 C 195.508 39.716 195.666 39.272 195.787 38.813 C 195.908 38.354 195.997 37.9 196.056 37.446 C 196.111 36.992 196.138 36.579 196.138 36.205 Z M 221.16 42.388 C 221.16 43.676 220.97 44.893 220.585 46.03 C 220.203 47.171 219.649 48.17 218.918 49.025 C 218.19 49.881 217.295 50.558 216.233 51.059 C 215.171 51.558 213.964 51.809 212.608 51.809 C 211.861 51.809 211.107 51.723 210.345 51.556 C 209.584 51.387 208.866 51.128 208.188 50.778 C 207.509 50.428 206.901 49.983 206.365 49.445 C 205.829 48.907 205.404 48.274 205.094 47.547 L 207.142 46.776 C 207.319 47.235 207.553 47.655 207.838 48.037 C 208.122 48.42 208.45 48.748 208.827 49.025 C 209.199 49.299 209.609 49.517 210.058 49.669 C 210.505 49.825 210.979 49.902 211.474 49.902 C 212.409 49.902 213.192 49.71 213.823 49.327 C 214.454 48.943 214.959 48.445 215.344 47.825 C 215.728 47.209 216.002 46.511 216.171 45.73 C 216.339 44.95 216.421 44.158 216.421 43.355 L 216.421 42.401 C 215.861 43.168 215.187 43.735 214.397 44.106 C 213.605 44.473 212.741 44.658 211.797 44.658 C 210.564 44.658 209.46 44.44 208.489 43.999 C 207.517 43.558 206.693 42.962 206.022 42.2 C 205.348 41.436 204.835 40.541 204.48 39.514 C 204.126 38.485 203.947 37.382 203.947 36.205 C 203.947 35.026 204.126 33.925 204.48 32.897 C 204.835 31.869 205.348 30.974 206.022 30.212 C 206.693 29.451 207.517 28.848 208.489 28.409 C 209.46 27.971 210.564 27.751 211.797 27.751 C 212.422 27.751 213.02 27.845 213.584 28.033 C 214.149 28.219 214.669 28.484 215.141 28.825 C 215.612 29.168 216.028 29.576 216.389 30.058 C 216.746 30.538 217.031 31.074 217.236 31.663 L 219.337 28.145 L 221.16 28.145 L 221.16 42.388 Z M 216.397 36.205 C 216.397 35.787 216.374 35.341 216.333 34.875 C 216.29 34.407 216.218 33.943 216.115 33.485 C 216.013 33.026 215.869 32.589 215.687 32.176 C 215.505 31.759 215.272 31.389 214.984 31.069 C 214.7 30.746 214.359 30.491 213.956 30.302 C 213.554 30.115 213.087 30.023 212.554 30.023 C 212.022 30.023 211.558 30.118 211.166 30.31 C 210.774 30.502 210.438 30.759 210.155 31.082 C 209.876 31.404 209.645 31.774 209.463 32.197 C 209.281 32.617 209.138 33.054 209.035 33.513 C 208.932 33.974 208.86 34.433 208.817 34.895 C 208.774 35.356 208.755 35.795 208.755 36.205 C 208.755 36.616 208.774 37.056 208.817 37.523 C 208.86 37.99 208.932 38.452 209.035 38.911 C 209.138 39.369 209.281 39.808 209.463 40.228 C 209.645 40.649 209.876 41.019 210.155 41.342 C 210.438 41.665 210.774 41.922 211.166 42.114 C 211.558 42.306 212.022 42.401 212.554 42.401 C 213.04 42.401 213.472 42.301 213.851 42.1 C 214.23 41.9 214.561 41.631 214.846 41.293 C 215.133 40.959 215.372 40.573 215.569 40.146 C 215.764 39.716 215.923 39.272 216.046 38.813 C 216.166 38.354 216.254 37.9 216.31 37.446 C 216.367 36.992 216.397 36.579 216.397 36.205 Z M 229.012 36.654 C 229.589 36.785 230.171 36.89 230.751 36.964 C 231.328 37.038 231.914 37.075 232.502 37.075 C 233.12 37.075 233.692 37.016 234.218 36.9 C 234.746 36.784 235.205 36.587 235.594 36.31 C 235.98 36.034 236.285 35.669 236.512 35.212 C 236.735 34.751 236.846 34.182 236.846 33.499 C 236.846 32.949 236.772 32.445 236.623 31.986 C 236.474 31.528 236.253 31.135 235.956 30.809 C 235.664 30.481 235.302 30.225 234.871 30.045 C 234.443 29.859 233.941 29.771 233.371 29.771 C 232.838 29.771 232.359 29.868 231.933 30.066 C 231.507 30.261 231.135 30.525 230.814 30.858 C 230.489 31.189 230.214 31.574 229.987 32.012 C 229.756 32.453 229.566 32.91 229.417 33.387 C 229.268 33.862 229.163 34.346 229.096 34.831 C 229.03 35.316 228.997 35.775 228.997 36.205 C 228.997 36.279 228.997 36.356 228.997 36.429 C 228.997 36.503 229.002 36.579 229.012 36.654 Z M 240.69 33.458 C 240.69 34.12 240.582 34.713 240.367 35.231 C 240.152 35.751 239.861 36.205 239.492 36.597 C 239.121 36.99 238.695 37.321 238.207 37.593 C 237.723 37.864 237.203 38.085 236.653 38.26 C 236.1 38.433 235.531 38.556 234.948 38.631 C 234.366 38.706 233.797 38.742 233.245 38.742 C 232.545 38.742 231.853 38.695 231.171 38.595 C 230.487 38.497 229.815 38.341 229.151 38.126 C 229.255 38.742 229.417 39.329 229.643 39.885 C 229.866 40.441 230.166 40.929 230.542 41.342 C 230.914 41.757 231.373 42.088 231.92 42.331 C 232.466 42.573 233.115 42.696 233.861 42.696 C 234.358 42.696 234.828 42.621 235.277 42.472 C 235.726 42.322 236.136 42.111 236.512 41.841 C 236.885 41.568 237.215 41.249 237.5 40.873 C 237.785 40.5 238.016 40.083 238.193 39.626 L 240.241 40.383 C 239.933 41.121 239.51 41.759 238.972 42.296 C 238.434 42.834 237.828 43.278 237.151 43.629 C 236.471 43.98 235.751 44.237 234.992 44.404 C 234.23 44.573 233.474 44.658 232.727 44.658 C 231.491 44.658 230.353 44.449 229.306 44.034 C 228.26 43.619 227.358 43.037 226.601 42.29 C 225.842 41.541 225.25 40.649 224.821 39.614 C 224.388 38.575 224.175 37.439 224.175 36.205 C 224.175 34.972 224.388 33.836 224.821 32.8 C 225.25 31.761 225.842 30.868 226.601 30.122 C 227.358 29.374 228.26 28.792 229.306 28.376 C 230.353 27.958 231.491 27.751 232.727 27.751 C 233.325 27.751 233.936 27.796 234.564 27.878 C 235.189 27.96 235.797 28.096 236.385 28.279 C 236.974 28.46 237.531 28.696 238.056 28.986 C 238.575 29.276 239.031 29.632 239.42 30.058 C 239.808 30.484 240.116 30.976 240.346 31.536 C 240.574 32.099 240.69 32.738 240.69 33.458 Z" style="fill: rgb(255, 255, 255);"/>
  <path d="M 127.659 52.882 C 127.659 53.994 127.526 55.153 127.266 56.357 C 127.004 57.562 126.636 58.738 126.164 59.883 C 125.694 61.029 125.127 62.111 124.463 63.129 C 123.797 64.149 123.06 65.031 122.248 65.778 L 120.466 64.811 C 120.737 64.326 120.986 63.778 121.212 63.172 C 121.435 62.565 121.638 61.924 121.827 61.252 C 122.012 60.578 122.176 59.888 122.319 59.175 C 122.456 58.465 122.576 57.759 122.674 57.052 C 122.774 56.346 122.846 55.661 122.892 54.997 C 122.938 54.335 122.961 53.713 122.961 53.135 C 122.961 52.807 122.953 52.451 122.933 52.069 C 122.915 51.686 122.876 51.3 122.814 50.92 C 122.755 50.535 122.661 50.169 122.542 49.82 C 122.42 49.468 122.253 49.156 122.045 48.881 C 121.833 48.604 121.571 48.383 121.26 48.219 C 120.947 48.056 120.57 47.974 120.132 47.974 C 119.701 47.974 119.334 48.089 119.029 48.32 C 118.727 48.547 118.466 48.843 118.253 49.207 C 118.039 49.571 117.867 49.983 117.74 50.443 C 117.614 50.9 117.519 51.361 117.453 51.823 C 117.386 52.286 117.344 52.728 117.321 53.148 C 117.294 53.567 117.285 53.922 117.285 54.213 L 117.285 62.329 L 112.56 62.329 L 112.56 54.789 C 112.56 54.461 112.565 54.066 112.572 53.604 C 112.582 53.141 112.57 52.656 112.539 52.153 C 112.506 51.646 112.446 51.146 112.357 50.645 C 112.269 50.146 112.128 49.701 111.936 49.307 C 111.744 48.915 111.483 48.596 111.159 48.347 C 110.831 48.099 110.421 47.974 109.924 47.974 C 109.506 47.974 109.152 48.092 108.867 48.327 C 108.58 48.56 108.343 48.861 108.153 49.232 C 107.961 49.601 107.81 50.014 107.703 50.478 C 107.595 50.94 107.518 51.404 107.466 51.866 C 107.413 52.328 107.382 52.768 107.374 53.184 C 107.366 53.599 107.361 53.943 107.361 54.213 L 107.361 62.329 L 102.607 62.329 L 102.607 46.139 L 104.43 46.139 L 106.167 49.909 C 106.561 48.601 107.18 47.581 108.026 46.845 C 108.87 46.114 109.993 45.745 111.397 45.745 C 112.657 45.745 113.705 46.007 114.537 46.532 C 115.37 47.055 116.022 47.906 116.499 49.083 C 116.772 48.57 117.07 48.107 117.404 47.696 C 117.734 47.283 118.104 46.932 118.511 46.643 C 118.917 46.353 119.368 46.132 119.865 45.978 C 120.358 45.822 120.904 45.745 121.504 45.745 C 122.607 45.745 123.55 45.925 124.33 46.286 C 125.109 46.645 125.746 47.143 126.243 47.781 C 126.736 48.414 127.097 49.169 127.323 50.045 C 127.544 50.917 127.659 51.863 127.659 52.882 Z M 147.117 62.329 L 142.378 62.329 L 142.378 60.395 C 141.816 61.162 141.142 61.729 140.35 62.098 C 139.562 62.467 138.694 62.65 137.752 62.65 C 136.516 62.65 135.414 62.432 134.442 61.993 C 133.47 61.552 132.647 60.954 131.975 60.192 C 131.305 59.431 130.788 58.538 130.433 57.508 C 130.079 56.479 129.9 55.376 129.9 54.199 C 129.9 53.022 130.079 51.92 130.433 50.891 C 130.788 49.863 131.305 48.969 131.975 48.207 C 132.647 47.445 133.47 46.843 134.442 46.407 C 135.414 45.966 136.516 45.745 137.752 45.745 C 138.378 45.745 138.971 45.839 139.537 46.025 C 140.104 46.214 140.622 46.476 141.096 46.819 C 141.566 47.16 141.981 47.571 142.34 48.052 C 142.701 48.532 142.984 49.068 143.191 49.658 L 145.292 46.139 L 147.117 46.139 L 147.117 62.329 Z M 142.347 54.199 C 142.347 53.779 142.327 53.335 142.286 52.868 C 142.243 52.402 142.171 51.938 142.07 51.479 C 141.966 51.02 141.824 50.586 141.643 50.169 C 141.458 49.753 141.224 49.384 140.94 49.061 C 140.655 48.738 140.311 48.484 139.907 48.296 C 139.507 48.111 139.04 48.017 138.506 48.017 C 137.973 48.017 137.511 48.112 137.121 48.304 C 136.726 48.496 136.391 48.753 136.111 49.074 C 135.831 49.397 135.598 49.771 135.418 50.189 C 135.234 50.61 135.091 51.05 134.988 51.509 C 134.887 51.966 134.813 52.425 134.773 52.889 C 134.729 53.351 134.708 53.787 134.708 54.199 C 134.708 54.61 134.729 55.049 134.773 55.517 C 134.813 55.985 134.887 56.448 134.988 56.905 C 135.091 57.362 135.234 57.803 135.418 58.225 C 135.598 58.643 135.831 59.013 136.111 59.338 C 136.391 59.662 136.726 59.916 137.121 60.108 C 137.511 60.301 137.973 60.395 138.506 60.395 C 138.994 60.395 139.424 60.295 139.804 60.093 C 140.183 59.893 140.516 59.624 140.799 59.287 C 141.083 58.951 141.324 58.567 141.522 58.139 C 141.719 57.708 141.876 57.264 141.996 56.807 C 142.119 56.348 142.209 55.894 142.265 55.439 C 142.32 54.987 142.347 54.572 142.347 54.199 Z M 165.002 57.157 C 165.002 57.869 164.899 58.498 164.694 59.049 C 164.488 59.6 164.207 60.078 163.855 60.488 C 163.497 60.893 163.079 61.234 162.591 61.51 C 162.106 61.787 161.585 62.008 161.029 62.177 C 160.471 62.344 159.893 62.464 159.283 62.539 C 158.677 62.614 158.073 62.65 157.475 62.65 C 156.672 62.65 155.96 62.603 155.342 62.5 C 154.728 62.398 154.139 62.229 153.577 62.001 C 153.016 61.773 152.457 61.477 151.902 61.113 C 151.346 60.746 150.728 60.301 150.046 59.778 L 152.806 57.523 C 153.059 58 153.393 58.431 153.81 58.818 C 154.224 59.208 154.657 59.541 155.106 59.821 C 155.555 60.1 155.991 60.316 156.409 60.465 C 156.829 60.613 157.17 60.69 157.432 60.69 C 157.647 60.69 157.891 60.683 158.162 60.67 C 158.434 60.654 158.708 60.626 158.991 60.587 C 159.268 60.542 159.545 60.48 159.817 60.395 C 160.086 60.313 160.327 60.196 160.539 60.051 C 160.747 59.908 160.917 59.724 161.044 59.505 C 161.17 59.285 161.23 59.023 161.23 58.713 C 161.23 58.397 161.15 58.12 160.988 57.879 C 160.824 57.641 160.611 57.434 160.35 57.256 C 160.086 57.079 159.788 56.928 159.454 56.807 C 159.116 56.685 158.777 56.577 158.437 56.485 C 158.095 56.392 157.765 56.312 157.449 56.239 C 157.129 56.169 156.854 56.1 156.619 56.036 C 156.19 55.913 155.736 55.79 155.26 55.666 C 154.782 55.538 154.313 55.394 153.844 55.23 C 153.377 55.067 152.929 54.874 152.505 54.648 C 152.08 54.423 151.705 54.156 151.385 53.841 C 151.062 53.53 150.803 53.159 150.613 52.735 C 150.42 52.309 150.325 51.812 150.325 51.243 C 150.325 50.196 150.535 49.319 150.951 48.612 C 151.366 47.907 151.915 47.343 152.597 46.917 C 153.279 46.491 154.054 46.189 154.924 46.012 C 155.79 45.834 156.677 45.745 157.573 45.745 C 158.19 45.745 158.839 45.809 159.522 45.935 C 160.204 46.062 160.867 46.248 161.512 46.496 C 162.157 46.743 162.758 47.045 163.319 47.399 C 163.881 47.756 164.348 48.161 164.722 48.62 L 161.962 50.891 C 161.755 50.332 161.486 49.846 161.155 49.446 C 160.824 49.047 160.463 48.715 160.076 48.458 C 159.688 48.201 159.29 48.014 158.883 47.893 C 158.478 47.771 158.101 47.707 157.754 47.707 C 157.418 47.707 157.041 47.722 156.619 47.75 C 156.2 47.779 155.805 47.858 155.436 47.989 C 155.065 48.119 154.752 48.32 154.497 48.586 C 154.239 48.85 154.11 49.217 154.11 49.686 C 154.11 50.02 154.188 50.309 154.339 50.546 C 154.495 50.786 154.698 50.991 154.952 51.164 C 155.203 51.337 155.49 51.482 155.814 51.599 C 156.136 51.717 156.465 51.818 156.803 51.907 C 157.137 51.995 157.467 52.074 157.783 52.14 C 158.103 52.202 158.386 52.274 158.639 52.35 C 159.068 52.471 159.524 52.595 160.006 52.722 C 160.486 52.846 160.958 52.99 161.429 53.156 C 161.896 53.318 162.347 53.51 162.781 53.73 C 163.216 53.951 163.596 54.218 163.924 54.536 C 164.252 54.854 164.512 55.223 164.709 55.649 C 164.906 56.075 165.002 56.577 165.002 57.157 Z M 181.924 57.157 C 181.924 57.869 181.822 58.498 181.616 59.049 C 181.411 59.6 181.127 60.078 180.775 60.488 C 180.419 60.893 179.999 61.234 179.514 61.51 C 179.026 61.787 178.505 62.008 177.949 62.177 C 177.393 62.344 176.811 62.464 176.205 62.539 C 175.598 62.614 174.993 62.65 174.397 62.65 C 173.592 62.65 172.882 62.603 172.266 62.5 C 171.648 62.398 171.059 62.229 170.497 62.001 C 169.936 61.773 169.379 61.477 168.823 61.113 C 168.268 60.746 167.648 60.301 166.964 59.778 L 169.728 57.523 C 169.981 58 170.312 58.431 170.73 58.818 C 171.148 59.208 171.577 59.541 172.026 59.821 C 172.474 60.1 172.91 60.316 173.331 60.465 C 173.749 60.613 174.092 60.69 174.354 60.69 C 174.569 60.69 174.813 60.683 175.083 60.67 C 175.352 60.654 175.629 60.626 175.91 60.587 C 176.19 60.542 176.465 60.48 176.737 60.395 C 177.008 60.313 177.249 60.196 177.459 60.051 C 177.669 59.908 177.837 59.724 177.965 59.505 C 178.09 59.285 178.154 59.023 178.154 58.713 C 178.154 58.397 178.072 58.12 177.906 57.879 C 177.742 57.641 177.531 57.434 177.27 57.256 C 177.006 57.079 176.71 56.928 176.372 56.807 C 176.036 56.685 175.698 56.577 175.356 56.485 C 175.013 56.392 174.687 56.312 174.367 56.239 C 174.051 56.169 173.774 56.1 173.541 56.036 C 173.111 55.913 172.657 55.79 172.18 55.666 C 171.705 55.538 171.231 55.394 170.764 55.23 C 170.297 55.067 169.849 54.874 169.427 54.648 C 169.002 54.423 168.627 54.156 168.305 53.841 C 167.982 53.53 167.723 53.159 167.535 52.735 C 167.343 52.309 167.246 51.812 167.246 51.243 C 167.246 50.196 167.455 49.319 167.871 48.612 C 168.286 47.907 168.833 47.343 169.518 46.917 C 170.199 46.491 170.974 46.189 171.844 46.012 C 172.715 45.834 173.598 45.745 174.493 45.745 C 175.111 45.745 175.76 45.809 176.442 45.935 C 177.124 46.062 177.79 46.248 178.434 46.496 C 179.077 46.743 179.681 47.045 180.242 47.399 C 180.803 47.756 181.27 48.161 181.644 48.62 L 178.883 50.891 C 178.677 50.332 178.408 49.846 178.077 49.446 C 177.742 49.047 177.385 48.715 176.998 48.458 C 176.61 48.201 176.213 48.014 175.805 47.893 C 175.398 47.771 175.021 47.707 174.675 47.707 C 174.339 47.707 173.964 47.722 173.541 47.75 C 173.12 47.779 172.725 47.858 172.357 47.989 C 171.987 48.119 171.672 48.32 171.417 48.586 C 171.161 48.85 171.031 49.217 171.031 49.686 C 171.031 50.02 171.108 50.309 171.264 50.546 C 171.417 50.786 171.62 50.991 171.874 51.164 C 172.125 51.337 172.41 51.482 172.736 51.599 C 173.057 51.717 173.387 51.818 173.725 51.907 C 174.061 51.995 174.387 52.074 174.705 52.14 C 175.021 52.202 175.308 52.274 175.559 52.35 C 175.99 52.471 176.444 52.595 176.926 52.722 C 177.408 52.846 177.883 52.99 178.35 53.156 C 178.816 53.318 179.267 53.51 179.703 53.73 C 180.139 53.951 180.516 54.218 180.844 54.536 C 181.17 54.854 181.432 55.223 181.629 55.649 C 181.826 56.075 181.924 56.577 181.924 57.157 Z M 201.213 62.329 L 196.474 62.329 L 196.474 60.395 C 195.911 61.162 195.236 61.729 194.448 62.098 C 193.659 62.467 192.79 62.65 191.848 62.65 C 190.613 62.65 189.512 62.432 188.54 61.993 C 187.566 61.552 186.743 60.954 186.071 60.192 C 185.401 59.431 184.884 58.538 184.529 57.508 C 184.175 56.479 183.996 55.376 183.996 54.199 C 183.996 53.022 184.175 51.92 184.529 50.891 C 184.884 49.863 185.401 48.969 186.071 48.207 C 186.743 47.445 187.566 46.843 188.54 46.407 C 189.512 45.966 190.613 45.745 191.848 45.745 C 192.472 45.745 193.069 45.839 193.633 46.025 C 194.198 46.214 194.72 46.476 195.19 46.819 C 195.662 47.16 196.079 47.571 196.438 48.052 C 196.798 48.532 197.082 49.068 197.285 49.658 L 199.39 46.139 L 201.213 46.139 L 201.213 62.329 Z M 196.446 54.199 C 196.446 53.779 196.424 53.335 196.383 52.868 C 196.339 52.402 196.267 51.938 196.165 51.479 C 196.062 51.02 195.92 50.586 195.738 50.169 C 195.554 49.753 195.323 49.384 195.038 49.061 C 194.752 48.738 194.408 48.484 194.007 48.296 C 193.605 48.111 193.138 48.017 192.607 48.017 C 192.071 48.017 191.608 48.112 191.218 48.304 C 190.823 48.496 190.487 48.753 190.209 49.074 C 189.925 49.397 189.694 49.771 189.514 50.189 C 189.333 50.61 189.189 51.05 189.086 51.509 C 188.982 51.966 188.909 52.425 188.869 52.889 C 188.825 53.351 188.805 53.787 188.805 54.199 C 188.805 54.61 188.825 55.049 188.869 55.517 C 188.909 55.985 188.982 56.448 189.086 56.905 C 189.189 57.362 189.333 57.803 189.514 58.225 C 189.694 58.643 189.925 59.013 190.209 59.338 C 190.487 59.662 190.823 59.916 191.218 60.108 C 191.608 60.301 192.071 60.395 192.607 60.395 C 193.089 60.395 193.521 60.295 193.9 60.093 C 194.28 59.893 194.611 59.624 194.897 59.287 C 195.182 58.951 195.421 58.567 195.62 58.139 C 195.815 57.708 195.974 57.264 196.095 56.807 C 196.216 56.348 196.306 55.894 196.361 55.439 C 196.418 54.987 196.446 54.572 196.446 54.199 Z M 221.468 60.382 C 221.468 61.672 221.277 62.886 220.895 64.027 C 220.51 65.165 219.955 66.165 219.224 67.019 C 218.497 67.875 217.602 68.552 216.541 69.053 C 215.48 69.552 214.272 69.802 212.92 69.802 C 212.168 69.802 211.415 69.717 210.655 69.55 C 209.892 69.381 209.171 69.124 208.494 68.771 C 207.815 68.422 207.209 67.978 206.671 67.44 C 206.135 66.903 205.712 66.268 205.404 65.54 L 207.45 64.768 C 207.629 65.227 207.86 65.649 208.143 66.03 C 208.43 66.416 208.76 66.744 209.132 67.019 C 209.505 67.296 209.917 67.511 210.368 67.666 C 210.814 67.817 211.287 67.896 211.782 67.896 C 212.717 67.896 213.499 67.704 214.131 67.321 C 214.759 66.939 215.269 66.439 215.651 65.819 C 216.033 65.204 216.308 64.504 216.479 63.726 C 216.646 62.945 216.733 62.152 216.733 61.349 L 216.733 60.395 C 216.169 61.162 215.495 61.729 214.705 62.098 C 213.917 62.467 213.046 62.65 212.105 62.65 C 210.869 62.65 209.768 62.432 208.794 61.993 C 207.825 61.552 207.001 60.954 206.327 60.192 C 205.655 59.431 205.14 58.538 204.786 57.508 C 204.43 56.479 204.253 55.376 204.253 54.199 C 204.253 53.022 204.43 51.92 204.786 50.891 C 205.14 49.863 205.655 48.969 206.327 48.207 C 207.001 47.445 207.825 46.843 208.794 46.407 C 209.768 45.966 210.869 45.745 212.105 45.745 C 212.731 45.745 213.325 45.839 213.892 46.025 C 214.458 46.214 214.974 46.476 215.449 46.819 C 215.921 47.16 216.334 47.571 216.695 48.052 C 217.056 48.532 217.338 49.068 217.544 49.658 L 219.647 46.139 L 221.468 46.139 L 221.468 60.382 Z M 216.702 54.199 C 216.702 53.779 216.68 53.335 216.639 52.868 C 216.597 52.402 216.523 51.938 216.421 51.479 C 216.32 51.02 216.179 50.586 215.997 50.169 C 215.813 49.753 215.579 49.384 215.294 49.061 C 215.008 48.738 214.666 48.484 214.262 48.296 C 213.861 48.111 213.394 48.017 212.861 48.017 C 212.328 48.017 211.866 48.112 211.474 48.304 C 211.081 48.496 210.745 48.753 210.464 49.074 C 210.184 49.397 209.953 49.771 209.771 50.189 C 209.587 50.61 209.445 51.05 209.342 51.509 C 209.24 51.966 209.166 52.425 209.125 52.889 C 209.083 53.351 209.063 53.787 209.063 54.199 C 209.063 54.61 209.083 55.049 209.125 55.517 C 209.166 55.985 209.24 56.448 209.342 56.905 C 209.445 57.362 209.587 57.803 209.771 58.225 C 209.953 58.643 210.184 59.013 210.464 59.338 C 210.745 59.662 211.081 59.916 211.474 60.108 C 211.866 60.301 212.328 60.395 212.861 60.395 C 213.346 60.395 213.779 60.295 214.158 60.093 C 214.536 59.893 214.869 59.624 215.154 59.287 C 215.438 58.951 215.679 58.567 215.875 58.139 C 216.069 57.708 216.231 57.264 216.352 56.807 C 216.474 56.348 216.562 55.894 216.618 55.439 C 216.672 54.987 216.702 54.572 216.702 54.199 Z M 229.319 54.648 C 229.899 54.777 230.478 54.884 231.056 54.958 C 231.638 55.033 232.222 55.069 232.81 55.069 C 233.428 55.069 234 55.01 234.528 54.892 C 235.054 54.776 235.513 54.581 235.902 54.307 C 236.289 54.028 236.594 53.661 236.82 53.204 C 237.043 52.746 237.157 52.176 237.157 51.496 C 237.157 50.945 237.08 50.438 236.931 49.979 C 236.782 49.52 236.559 49.132 236.267 48.804 C 235.971 48.476 235.608 48.219 235.181 48.038 C 234.748 47.858 234.251 47.765 233.679 47.765 C 233.145 47.765 232.668 47.865 232.24 48.058 C 231.815 48.256 231.443 48.52 231.12 48.85 C 230.799 49.183 230.524 49.569 230.294 50.007 C 230.066 50.446 229.876 50.905 229.727 51.382 C 229.576 51.859 229.469 52.34 229.402 52.825 C 229.338 53.312 229.306 53.769 229.306 54.199 C 229.306 54.272 229.306 54.348 229.306 54.423 C 229.306 54.499 229.31 54.572 229.319 54.648 Z M 240.996 51.451 C 240.996 52.115 240.89 52.707 240.674 53.225 C 240.457 53.745 240.169 54.199 239.798 54.592 C 239.429 54.985 239.002 55.317 238.518 55.587 C 238.031 55.859 237.512 56.08 236.957 56.253 C 236.407 56.426 235.84 56.549 235.258 56.625 C 234.671 56.698 234.105 56.736 233.554 56.736 C 232.851 56.736 232.159 56.687 231.478 56.589 C 230.796 56.492 230.122 56.336 229.46 56.12 C 229.563 56.736 229.727 57.325 229.95 57.879 C 230.174 58.436 230.473 58.923 230.848 59.338 C 231.22 59.752 231.679 60.082 232.228 60.326 C 232.776 60.57 233.423 60.69 234.169 60.69 C 234.666 60.69 235.136 60.613 235.585 60.465 C 236.033 60.316 236.444 60.105 236.82 59.834 C 237.192 59.562 237.521 59.242 237.807 58.867 C 238.093 58.493 238.321 58.077 238.502 57.62 L 240.547 58.375 C 240.241 59.116 239.818 59.754 239.28 60.288 C 238.744 60.828 238.133 61.272 237.456 61.623 C 236.779 61.972 236.059 62.232 235.297 62.401 C 234.536 62.568 233.781 62.65 233.033 62.65 C 231.8 62.65 230.66 62.444 229.615 62.029 C 228.566 61.614 227.663 61.032 226.909 60.283 C 226.15 59.536 225.558 58.643 225.127 57.607 C 224.698 56.567 224.483 55.433 224.483 54.199 C 224.483 52.966 224.698 51.832 225.127 50.794 C 225.558 49.755 226.15 48.863 226.909 48.115 C 227.663 47.368 228.566 46.786 229.615 46.37 C 230.66 45.955 231.8 45.745 233.033 45.745 C 233.631 45.745 234.245 45.789 234.869 45.873 C 235.495 45.957 236.105 46.089 236.695 46.271 C 237.282 46.455 237.839 46.689 238.361 46.981 C 238.884 47.268 239.341 47.627 239.729 48.052 C 240.115 48.478 240.426 48.969 240.654 49.532 C 240.883 50.092 240.996 50.732 240.996 51.451 Z M 257.889 57.157 C 257.889 57.869 257.787 58.498 257.58 59.049 C 257.376 59.6 257.092 60.078 256.738 60.488 C 256.382 60.893 255.964 61.234 255.476 61.51 C 254.991 61.787 254.468 62.008 253.914 62.177 C 253.358 62.344 252.776 62.464 252.169 62.539 C 251.561 62.614 250.96 62.65 250.361 62.65 C 249.556 62.65 248.847 62.603 248.23 62.5 C 247.612 62.398 247.024 62.229 246.463 62.001 C 245.903 61.773 245.345 61.477 244.788 61.113 C 244.234 60.746 243.613 60.301 242.931 59.778 L 245.694 57.523 C 245.944 58 246.276 58.431 246.696 58.818 C 247.111 59.208 247.542 59.541 247.991 59.821 C 248.439 60.1 248.875 60.316 249.296 60.465 C 249.715 60.613 250.058 60.69 250.319 60.69 C 250.533 60.69 250.776 60.683 251.05 60.67 C 251.319 60.654 251.594 60.626 251.876 60.587 C 252.155 60.542 252.43 60.48 252.702 60.395 C 252.974 60.313 253.215 60.196 253.425 60.051 C 253.635 59.908 253.802 59.724 253.927 59.505 C 254.055 59.285 254.117 59.023 254.117 58.713 C 254.117 58.397 254.036 58.12 253.873 57.879 C 253.707 57.641 253.496 57.434 253.233 57.256 C 252.974 57.079 252.674 56.928 252.337 56.807 C 252.001 56.685 251.66 56.577 251.32 56.485 C 250.979 56.392 250.65 56.312 250.332 56.239 C 250.014 56.169 249.738 56.1 249.507 56.036 C 249.075 55.913 248.622 55.79 248.147 55.666 C 247.668 55.538 247.196 55.394 246.729 55.23 C 246.263 55.067 245.816 54.874 245.39 54.648 C 244.967 54.423 244.591 54.156 244.27 53.841 C 243.945 53.53 243.69 53.159 243.496 52.735 C 243.306 52.309 243.211 51.812 243.211 51.243 C 243.211 50.196 243.419 49.319 243.834 48.612 C 244.25 47.907 244.799 47.343 245.481 46.917 C 246.163 46.491 246.939 46.189 247.809 46.012 C 248.68 45.834 249.561 45.745 250.458 45.745 C 251.076 45.745 251.725 45.809 252.409 45.935 C 253.089 46.062 253.751 46.248 254.399 46.496 C 255.043 46.743 255.645 47.045 256.205 47.399 C 256.766 47.756 257.235 48.161 257.607 48.62 L 254.846 50.891 C 254.64 50.332 254.371 49.846 254.041 49.446 C 253.709 49.047 253.348 48.715 252.963 48.458 C 252.571 48.201 252.176 48.014 251.769 47.893 C 251.363 47.771 250.986 47.707 250.642 47.707 C 250.304 47.707 249.925 47.722 249.507 47.75 C 249.084 47.779 248.689 47.858 248.321 47.989 C 247.95 48.119 247.637 48.32 247.381 48.586 C 247.124 48.85 246.996 49.217 246.996 49.686 C 246.996 50.02 247.073 50.309 247.229 50.546 C 247.381 50.786 247.588 50.991 247.837 51.164 C 248.089 51.337 248.376 51.482 248.701 51.599 C 249.022 51.717 249.35 51.818 249.688 51.907 C 250.024 51.995 250.35 52.074 250.668 52.14 C 250.986 52.202 251.271 52.274 251.525 52.35 C 251.953 52.471 252.41 52.595 252.889 52.722 C 253.373 52.846 253.846 52.99 254.315 53.156 C 254.782 53.318 255.231 53.51 255.668 53.73 C 256.102 53.951 256.481 54.218 256.81 54.536 C 257.136 54.854 257.397 55.223 257.595 55.649 C 257.79 56.075 257.889 56.577 257.889 57.157 Z" style="fill: rgb(255, 255, 255);"/>
  <g transform="matrix(1.02537, 0, 0, 1.02537, -4.340503, 5.179401)" style="">
    <path d="M 54.3 57.405 C 54.367 57.471 54.135 57.361 54.131 57.357 C 53.738 56.899 53.096 56.273 51.597 55.263 C 49.299 53.714 46.651 52.578 43.904 51.953 C 42.7 51.68 41.702 51.418 40.726 51.112 C 36.628 49.818 32.883 47.683 30.319 45.19 C 29.554 44.444 29.437 44.266 29.214 43.414 C 28.596 41.054 28.005 34.594 28.351 33.948 C 28.54 33.596 29.226 34.109 29.756 34.989 C 30.158 35.648 30.424 36.445 30.748 37.894 C 31.484 41.226 32.124 42.638 33.189 43.279 C 33.976 43.748 35.854 44.348 38.748 45.068 C 40.318 45.452 41.011 45.609 41.049 45.575 C 41.06 45.564 40.961 45.492 40.826 45.414 C 40.275 45.101 38.864 44.305 38.133 43.896 C 36.143 42.788 35.72 42.498 34.9 41.673 C 34.281 41.043 33.964 40.542 33.993 40.229 C 34.008 40.068 34.026 40.051 34.227 40.035 C 34.543 40.007 35.158 40.229 36.379 40.803 C 37.292 41.233 38.48 41.735 39.807 42.253 C 42.108 43.145 42.827 43.447 44.099 44.059 C 46.445 45.197 47.873 46.171 49.418 47.716 C 52.265 50.559 53.832 53.475 54.173 56.574 L 54.238 57.215 L 54.311 56.59 C 54.635 53.709 55.923 51.123 58.403 48.407 C 60.732 45.854 62.917 44.504 67.819 42.588 C 70.221 41.646 71.085 41.288 72.088 40.81 C 73.336 40.219 73.918 40.011 74.246 40.035 C 74.464 40.051 74.48 40.062 74.497 40.229 C 74.535 40.636 73.856 41.539 72.98 42.242 C 72.216 42.855 71.67 43.177 67.835 45.302 C 67.639 45.408 67.471 45.52 67.45 45.548 C 67.412 45.615 67.384 45.615 67.935 45.492 C 71.151 44.766 73.918 43.965 74.999 43.435 C 76.337 42.782 77.023 41.345 77.847 37.431 C 78.119 36.122 78.5 35.213 79.062 34.499 C 79.34 34.138 79.748 33.836 79.948 33.836 C 80.187 33.836 80.222 34.002 80.216 35.145 C 80.204 37.704 79.687 41.981 79.184 43.669 C 78.984 44.331 78.85 44.532 78.137 45.218 C 75.644 47.622 72.088 49.672 68.181 50.961 C 66.915 51.378 66.324 51.541 64.724 51.919 C 64.021 52.087 63.118 52.327 62.717 52.454 C 59.992 53.335 57.426 54.7 55.388 56.363 C 54.539 57.053 54.238 57.344 54.3 57.405 Z" stroke="none" style="fill: rgb(168, 111, 86);"/>
    <path d="M 65.199 33.05 C 65.199 33.155 64.205 33.841 63.693 34.092 C 63.047 34.41 62.094 34.728 61.24 34.918 C 60.661 35.045 58.748 35.336 57.328 35.508 C 57.027 35.547 56.78 35.604 56.78 35.631 C 56.78 35.658 56.864 35.943 56.97 36.26 C 57.171 36.868 57.393 37.787 57.516 38.545 C 57.627 39.231 57.612 41.205 57.489 41.862 C 57.36 42.537 57.02 43.562 56.736 44.126 C 56.335 44.917 56.351 44.952 56.351 43.39 C 56.351 40.714 56.038 39.271 54.823 36.428 C 54.629 35.965 54.584 35.792 54.562 35.414 C 54.539 35.018 54.557 34.922 54.669 34.688 C 54.857 34.293 55.294 33.891 55.726 33.714 C 56.519 33.39 56.707 33.378 59.902 33.366 C 63.114 33.356 63.392 33.333 65.159 33.005 C 65.182 33.005 65.199 33.021 65.199 33.05 Z" stroke="none" style="fill: rgb(95, 147, 187);"/>
    <path d="M 46.748 32.944 C 48.128 33.216 49.289 33.775 50.382 34.684 C 53.759 37.492 55.538 43.597 54.662 49.394 C 54.511 50.38 54.21 51.624 54.16 51.472 C 54.133 51.411 53.976 50.699 53.803 49.884 C 52.254 42.648 51.496 40.352 49.84 37.877 C 48.362 35.675 46.29 34.081 43.793 33.228 C 43.503 33.128 43.24 33.028 43.218 33 C 43.168 32.955 43.373 32.921 44.149 32.827 C 44.801 32.754 46.094 32.81 46.748 32.944 Z" stroke="none" style="fill: rgb(95, 147, 187);"/>
    <path d="M 54.618 27.263 C 55.71 27.493 56.613 28.64 56.613 29.8 C 56.613 30.462 56.218 31.455 55.693 32.118 C 55.381 32.503 54.88 32.849 54.489 32.944 C 53.069 33.289 51.396 30.893 51.848 29.153 C 52.088 28.223 52.795 27.503 53.688 27.28 C 54.043 27.191 54.255 27.185 54.618 27.263 Z" stroke="none" style="fill: rgb(95, 147, 187);"/>
    <path d="M 55.131 6.092 C 60.188 11.76 63.977 17.319 66.342 22.542 C 66.57 23.044 66.948 23.94 67.189 24.537 C 67.423 25.129 67.634 25.636 67.663 25.664 C 67.69 25.697 68.036 25.618 68.504 25.484 C 71.961 24.476 76.666 23.645 81.119 23.244 C 83.672 23.016 88.065 22.876 90.596 22.937 C 92.224 22.977 92.24 22.977 92.24 23.098 C 92.24 23.45 92.051 25.546 91.927 26.588 C 90.658 37.369 87.976 45.704 83.75 52.037 C 82.417 54.032 81.633 55.035 80.534 56.14 C 79.068 57.611 77.623 58.636 75.668 59.595 C 74.769 60.041 74.781 60.041 76.297 59.691 C 78.071 59.282 79.625 58.833 83.711 57.555 C 88.26 56.134 89.853 55.727 92.157 55.387 C 93.69 55.163 94.61 55.102 96.339 55.109 C 98.104 55.109 99.292 55.203 100.67 55.443 C 101.483 55.581 102.955 55.916 102.921 55.95 C 102.909 55.961 102.169 56.156 101.266 56.385 C 96.21 57.655 93.717 58.531 87.919 61.083 C 84.291 62.678 82.468 63.375 79.67 64.245 C 77.612 64.88 76.231 65.17 74.179 65.399 C 73.316 65.493 69.591 65.493 68.688 65.399 C 65.198 65.018 62.506 64.288 60.019 63.046 C 57.6 61.837 55.566 60.086 54.501 58.308 C 54.072 57.589 54.244 57.79 54.306 57.851 C 54.373 57.917 55.661 58.336 56.63 58.609 C 60.249 59.63 64.051 59.941 67.49 59.5 C 71.797 58.954 75.567 57.081 78.175 54.189 C 79.068 53.202 79.72 52.282 80.807 50.481 C 83.534 45.977 85.562 40.223 86.995 32.943 C 87.463 30.563 88.042 26.99 87.965 26.923 C 87.865 26.833 83.632 27.281 81.593 27.598 C 77.401 28.25 73.7 29.141 70.277 30.318 C 69.653 30.535 69.119 30.736 69.09 30.764 C 69.05 30.803 69.067 31.015 69.129 31.393 C 69.324 32.626 69.391 33.417 69.424 34.905 C 69.452 36.355 69.396 37.733 69.278 38.379 C 69.234 38.641 69.251 38.68 68.967 37.654 C 67.143 31.077 63.566 24.687 57.334 16.895 C 56.307 15.612 54.229 13.099 54.194 13.099 C 54.172 13.099 52.466 15.144 51.597 16.22 C 44.952 24.432 41.206 31.031 39.366 37.76 C 39.26 38.156 39.16 38.49 39.149 38.502 C 39.055 38.596 38.938 36.941 38.938 35.48 C 38.938 34.013 38.988 33.29 39.182 31.911 C 39.25 31.45 39.304 30.998 39.304 30.908 L 39.31 30.743 L 38.229 30.362 C 34.076 28.913 29.093 27.816 23.981 27.23 C 22.18 27.019 20.479 26.872 20.425 26.923 C 20.374 26.969 20.542 28.137 20.92 30.373 C 22.492 39.688 24.856 46.456 28.385 51.791 C 29.294 53.158 29.823 53.82 30.804 54.796 C 33.497 57.482 36.942 59.031 41.401 59.573 C 42.416 59.696 45.409 59.713 46.474 59.601 C 48.939 59.344 51.195 58.854 53.547 58.057 C 53.871 57.951 54.139 57.867 54.143 57.877 C 54.172 57.906 53.72 58.592 53.37 59.055 C 52.901 59.673 51.915 60.683 51.239 61.223 C 48.659 63.307 44.924 64.74 40.676 65.276 C 39.404 65.432 38.308 65.499 36.803 65.499 C 33.942 65.499 31.713 65.158 28.886 64.3 C 25.959 63.408 23.831 62.582 19.494 60.66 C 14.811 58.586 11.605 57.482 6.894 56.324 C 5.273 55.926 5.38 55.961 5.585 55.9 C 6.522 55.627 8.138 55.336 9.459 55.203 C 10.603 55.085 13.323 55.074 14.448 55.174 C 17.514 55.454 19.655 55.961 25.319 57.75 C 27.979 58.592 29.449 59.027 30.782 59.368 C 32.109 59.707 33.251 59.951 33.29 59.914 C 33.306 59.901 33.033 59.753 32.688 59.584 C 29.924 58.247 27.866 56.501 25.871 53.815 C 24.489 51.958 23.39 50.164 22.254 47.911 C 19.075 41.628 17.146 34.12 16.259 24.56 C 16.199 23.885 16.148 23.255 16.148 23.155 L 16.148 22.977 L 17.794 22.937 C 19.61 22.893 23.329 22.977 25.347 23.105 C 30.586 23.445 35.565 24.265 39.969 25.513 C 40.381 25.63 40.698 25.691 40.727 25.664 C 40.749 25.636 40.849 25.384 40.943 25.101 C 41.418 23.723 42.693 20.992 43.743 19.119 C 46.139 14.822 49.267 10.546 53.313 6.03 C 53.788 5.501 54.194 5.082 54.223 5.099 C 54.25 5.115 54.657 5.563 55.131 6.092 Z" stroke="none" style="fill: rgb(95, 147, 187);"/>
  </g>
</svg>