<?xml version="1.0" encoding="utf-8"?>
<svg viewBox="0 0 500 315" preserveAspectRatio="xMidYMin" xmlns="http://www.w3.org/2000/svg">
  <g transform="matrix(5.10578, 0, 0, 5.10578, -26.983576, -23.087854)" style="">
    <path d="M 54.3 57.405 C 54.367 57.471 54.135 57.361 54.131 57.357 C 53.738 56.899 53.096 56.273 51.597 55.263 C 49.299 53.714 46.651 52.578 43.904 51.953 C 42.7 51.68 41.702 51.418 40.726 51.112 C 36.628 49.818 32.883 47.683 30.319 45.19 C 29.554 44.444 29.437 44.266 29.214 43.414 C 28.596 41.054 28.005 34.594 28.351 33.948 C 28.54 33.596 29.226 34.109 29.756 34.989 C 30.158 35.648 30.424 36.445 30.748 37.894 C 31.484 41.226 32.124 42.638 33.189 43.279 C 33.976 43.748 35.854 44.348 38.748 45.068 C 40.318 45.452 41.011 45.609 41.049 45.575 C 41.06 45.564 40.961 45.492 40.826 45.414 C 40.275 45.101 38.864 44.305 38.133 43.896 C 36.143 42.788 35.72 42.498 34.9 41.673 C 34.281 41.043 33.964 40.542 33.993 40.229 C 34.008 40.068 34.026 40.051 34.227 40.035 C 34.543 40.007 35.158 40.229 36.379 40.803 C 37.292 41.233 38.48 41.735 39.807 42.253 C 42.108 43.145 42.827 43.447 44.099 44.059 C 46.445 45.197 47.873 46.171 49.418 47.716 C 52.265 50.559 53.832 53.475 54.173 56.574 L 54.238 57.215 L 54.311 56.59 C 54.635 53.709 55.923 51.123 58.403 48.407 C 60.732 45.854 62.917 44.504 67.819 42.588 C 70.221 41.646 71.085 41.288 72.088 40.81 C 73.336 40.219 73.918 40.011 74.246 40.035 C 74.464 40.051 74.48 40.062 74.497 40.229 C 74.535 40.636 73.856 41.539 72.98 42.242 C 72.216 42.855 71.67 43.177 67.835 45.302 C 67.639 45.408 67.471 45.52 67.45 45.548 C 67.412 45.615 67.384 45.615 67.935 45.492 C 71.151 44.766 73.918 43.965 74.999 43.435 C 76.337 42.782 77.023 41.345 77.847 37.431 C 78.119 36.122 78.5 35.213 79.062 34.499 C 79.34 34.138 79.748 33.836 79.948 33.836 C 80.187 33.836 80.222 34.002 80.216 35.145 C 80.204 37.704 79.687 41.981 79.184 43.669 C 78.984 44.331 78.85 44.532 78.137 45.218 C 75.644 47.622 72.088 49.672 68.181 50.961 C 66.915 51.378 66.324 51.541 64.724 51.919 C 64.021 52.087 63.118 52.327 62.717 52.454 C 59.992 53.335 57.426 54.7 55.388 56.363 C 54.539 57.053 54.238 57.344 54.3 57.405 Z" stroke="none" style="fill: rgb(168, 111, 86);"/>
    <path d="M 65.199 33.05 C 65.199 33.155 64.205 33.841 63.693 34.092 C 63.047 34.41 62.094 34.728 61.24 34.918 C 60.661 35.045 58.748 35.336 57.328 35.508 C 57.027 35.547 56.78 35.604 56.78 35.631 C 56.78 35.658 56.864 35.943 56.97 36.26 C 57.171 36.868 57.393 37.787 57.516 38.545 C 57.627 39.231 57.612 41.205 57.489 41.862 C 57.36 42.537 57.02 43.562 56.736 44.126 C 56.335 44.917 56.351 44.952 56.351 43.39 C 56.351 40.714 56.038 39.271 54.823 36.428 C 54.629 35.965 54.584 35.792 54.562 35.414 C 54.539 35.018 54.557 34.922 54.669 34.688 C 54.857 34.293 55.294 33.891 55.726 33.714 C 56.519 33.39 56.707 33.378 59.902 33.366 C 63.114 33.356 63.392 33.333 65.159 33.005 C 65.182 33.005 65.199 33.021 65.199 33.05 Z" stroke="none" style="fill: rgb(95, 147, 187);"/>
    <path d="M 46.748 32.944 C 48.128 33.216 49.289 33.775 50.382 34.684 C 53.759 37.492 55.538 43.597 54.662 49.394 C 54.511 50.38 54.21 51.624 54.16 51.472 C 54.133 51.411 53.976 50.699 53.803 49.884 C 52.254 42.648 51.496 40.352 49.84 37.877 C 48.362 35.675 46.29 34.081 43.793 33.228 C 43.503 33.128 43.24 33.028 43.218 33 C 43.168 32.955 43.373 32.921 44.149 32.827 C 44.801 32.754 46.094 32.81 46.748 32.944 Z" stroke="none" style="fill: rgb(95, 147, 187);"/>
    <path d="M 54.618 27.263 C 55.71 27.493 56.613 28.64 56.613 29.8 C 56.613 30.462 56.218 31.455 55.693 32.118 C 55.381 32.503 54.88 32.849 54.489 32.944 C 53.069 33.289 51.396 30.893 51.848 29.153 C 52.088 28.223 52.795 27.503 53.688 27.28 C 54.043 27.191 54.255 27.185 54.618 27.263 Z" stroke="none" style="fill: rgb(95, 147, 187);"/>
    <path d="M 55.131 6.092 C 60.188 11.76 63.977 17.319 66.342 22.542 C 66.57 23.044 66.948 23.94 67.189 24.537 C 67.423 25.129 67.634 25.636 67.663 25.664 C 67.69 25.697 68.036 25.618 68.504 25.484 C 71.961 24.476 76.666 23.645 81.119 23.244 C 83.672 23.016 88.065 22.876 90.596 22.937 C 92.224 22.977 92.24 22.977 92.24 23.098 C 92.24 23.45 92.051 25.546 91.927 26.588 C 90.658 37.369 87.976 45.704 83.75 52.037 C 82.417 54.032 81.633 55.035 80.534 56.14 C 79.068 57.611 77.623 58.636 75.668 59.595 C 74.769 60.041 74.781 60.041 76.297 59.691 C 78.071 59.282 79.625 58.833 83.711 57.555 C 88.26 56.134 89.853 55.727 92.157 55.387 C 93.69 55.163 94.61 55.102 96.339 55.109 C 98.104 55.109 99.292 55.203 100.67 55.443 C 101.483 55.581 102.955 55.916 102.921 55.95 C 102.909 55.961 102.169 56.156 101.266 56.385 C 96.21 57.655 93.717 58.531 87.919 61.083 C 84.291 62.678 82.468 63.375 79.67 64.245 C 77.612 64.88 76.231 65.17 74.179 65.399 C 73.316 65.493 69.591 65.493 68.688 65.399 C 65.198 65.018 62.506 64.288 60.019 63.046 C 57.6 61.837 55.566 60.086 54.501 58.308 C 54.072 57.589 54.244 57.79 54.306 57.851 C 54.373 57.917 55.661 58.336 56.63 58.609 C 60.249 59.63 64.051 59.941 67.49 59.5 C 71.797 58.954 75.567 57.081 78.175 54.189 C 79.068 53.202 79.72 52.282 80.807 50.481 C 83.534 45.977 85.562 40.223 86.995 32.943 C 87.463 30.563 88.042 26.99 87.965 26.923 C 87.865 26.833 83.632 27.281 81.593 27.598 C 77.401 28.25 73.7 29.141 70.277 30.318 C 69.653 30.535 69.119 30.736 69.09 30.764 C 69.05 30.803 69.067 31.015 69.129 31.393 C 69.324 32.626 69.391 33.417 69.424 34.905 C 69.452 36.355 69.396 37.733 69.278 38.379 C 69.234 38.641 69.251 38.68 68.967 37.654 C 67.143 31.077 63.566 24.687 57.334 16.895 C 56.307 15.612 54.229 13.099 54.194 13.099 C 54.172 13.099 52.466 15.144 51.597 16.22 C 44.952 24.432 41.206 31.031 39.366 37.76 C 39.26 38.156 39.16 38.49 39.149 38.502 C 39.055 38.596 38.938 36.941 38.938 35.48 C 38.938 34.013 38.988 33.29 39.182 31.911 C 39.25 31.45 39.304 30.998 39.304 30.908 L 39.31 30.743 L 38.229 30.362 C 34.076 28.913 29.093 27.816 23.981 27.23 C 22.18 27.019 20.479 26.872 20.425 26.923 C 20.374 26.969 20.542 28.137 20.92 30.373 C 22.492 39.688 24.856 46.456 28.385 51.791 C 29.294 53.158 29.823 53.82 30.804 54.796 C 33.497 57.482 36.942 59.031 41.401 59.573 C 42.416 59.696 45.409 59.713 46.474 59.601 C 48.939 59.344 51.195 58.854 53.547 58.057 C 53.871 57.951 54.139 57.867 54.143 57.877 C 54.172 57.906 53.72 58.592 53.37 59.055 C 52.901 59.673 51.915 60.683 51.239 61.223 C 48.659 63.307 44.924 64.74 40.676 65.276 C 39.404 65.432 38.308 65.499 36.803 65.499 C 33.942 65.499 31.713 65.158 28.886 64.3 C 25.959 63.408 23.831 62.582 19.494 60.66 C 14.811 58.586 11.605 57.482 6.894 56.324 C 5.273 55.926 5.38 55.961 5.585 55.9 C 6.522 55.627 8.138 55.336 9.459 55.203 C 10.603 55.085 13.323 55.074 14.448 55.174 C 17.514 55.454 19.655 55.961 25.319 57.75 C 27.979 58.592 29.449 59.027 30.782 59.368 C 32.109 59.707 33.251 59.951 33.29 59.914 C 33.306 59.901 33.033 59.753 32.688 59.584 C 29.924 58.247 27.866 56.501 25.871 53.815 C 24.489 51.958 23.39 50.164 22.254 47.911 C 19.075 41.628 17.146 34.12 16.259 24.56 C 16.199 23.885 16.148 23.255 16.148 23.155 L 16.148 22.977 L 17.794 22.937 C 19.61 22.893 23.329 22.977 25.347 23.105 C 30.586 23.445 35.565 24.265 39.969 25.513 C 40.381 25.63 40.698 25.691 40.727 25.664 C 40.749 25.636 40.849 25.384 40.943 25.101 C 41.418 23.723 42.693 20.992 43.743 19.119 C 46.139 14.822 49.267 10.546 53.313 6.03 C 53.788 5.501 54.194 5.082 54.223 5.099 C 54.25 5.115 54.657 5.563 55.131 6.092 Z" stroke="none" style="fill: rgb(95, 147, 187);"/>
  </g>
</svg>