<?xml version="1.0" encoding="utf-8"?>
<svg width="161" height="50" viewBox="0 0 161 50" fill="none" xmlns="http://www.w3.org/2000/svg">
  <path d="M 78.78 18.803 C 78.78 19.482 78.7 20.188 78.541 20.924 C 78.381 21.658 78.157 22.374 77.869 23.074 C 77.582 23.772 77.234 24.432 76.83 25.054 C 76.425 25.676 75.974 26.213 75.479 26.67 L 74.393 26.08 C 74.558 25.784 74.709 25.451 74.845 25.08 C 74.982 24.708 75.108 24.318 75.223 23.907 C 75.336 23.497 75.436 23.075 75.521 22.643 C 75.606 22.209 75.68 21.777 75.739 21.347 C 75.799 20.916 75.843 20.498 75.873 20.094 C 75.901 19.69 75.915 19.309 75.915 18.955 C 75.915 18.757 75.909 18.54 75.898 18.307 C 75.887 18.072 75.862 17.839 75.826 17.605 C 75.789 17.372 75.732 17.148 75.659 16.934 C 75.584 16.72 75.483 16.53 75.354 16.361 C 75.226 16.194 75.066 16.059 74.876 15.958 C 74.684 15.86 74.455 15.809 74.187 15.809 C 73.925 15.809 73.701 15.879 73.516 16.018 C 73.331 16.158 73.173 16.339 73.043 16.561 C 72.911 16.783 72.806 17.034 72.73 17.314 C 72.653 17.594 72.593 17.874 72.555 18.156 C 72.514 18.439 72.487 18.709 72.472 18.965 C 72.458 19.222 72.451 19.437 72.451 19.615 L 72.451 24.566 L 69.57 24.566 L 69.57 19.966 C 69.57 19.766 69.571 19.525 69.578 19.243 C 69.583 18.961 69.576 18.666 69.557 18.358 C 69.536 18.05 69.5 17.743 69.446 17.438 C 69.392 17.134 69.305 16.862 69.189 16.621 C 69.072 16.382 68.914 16.186 68.714 16.036 C 68.515 15.885 68.263 15.809 67.962 15.809 C 67.705 15.809 67.489 15.88 67.315 16.023 C 67.142 16.165 66.996 16.349 66.88 16.574 C 66.763 16.801 66.673 17.053 66.606 17.335 C 66.541 17.617 66.491 17.9 66.461 18.182 C 66.429 18.465 66.411 18.733 66.406 18.986 C 66.399 19.239 66.397 19.449 66.397 19.615 L 66.397 24.566 L 63.498 24.566 L 63.498 14.689 L 64.609 14.689 L 65.669 16.989 C 65.91 16.192 66.287 15.568 66.803 15.12 C 67.318 14.673 68.004 14.449 68.86 14.449 C 69.629 14.449 70.267 14.609 70.776 14.928 C 71.282 15.247 71.681 15.766 71.973 16.484 C 72.138 16.171 72.322 15.889 72.524 15.639 C 72.727 15.388 72.952 15.174 73.199 14.996 C 73.448 14.82 73.722 14.684 74.025 14.591 C 74.327 14.497 74.661 14.449 75.026 14.449 C 75.699 14.449 76.272 14.56 76.748 14.779 C 77.225 14.998 77.613 15.301 77.917 15.689 C 78.218 16.076 78.437 16.537 78.574 17.07 C 78.712 17.604 78.78 18.181 78.78 18.803 Z M 90.649 24.566 L 87.76 24.566 L 87.76 23.386 C 87.417 23.854 87.005 24.2 86.524 24.426 C 86.042 24.65 85.513 24.763 84.937 24.763 C 84.184 24.763 83.512 24.63 82.918 24.361 C 82.325 24.092 81.823 23.728 81.413 23.263 C 81.002 22.797 80.689 22.251 80.473 21.625 C 80.256 20.997 80.148 20.324 80.148 19.606 C 80.148 18.887 80.256 18.215 80.473 17.588 C 80.689 16.961 81.002 16.415 81.413 15.95 C 81.823 15.486 82.325 15.118 82.918 14.85 C 83.512 14.583 84.184 14.449 84.937 14.449 C 85.318 14.449 85.682 14.506 86.027 14.621 C 86.371 14.734 86.688 14.896 86.976 15.104 C 87.264 15.313 87.517 15.562 87.737 15.856 C 87.957 16.149 88.129 16.476 88.254 16.835 L 89.537 14.689 L 90.649 14.689 L 90.649 24.566 Z M 87.742 19.606 C 87.742 19.351 87.729 19.079 87.704 18.795 C 87.677 18.509 87.634 18.226 87.57 17.947 C 87.508 17.667 87.421 17.4 87.309 17.148 C 87.199 16.894 87.057 16.668 86.883 16.473 C 86.708 16.276 86.499 16.12 86.254 16.005 C 86.008 15.891 85.723 15.835 85.399 15.835 C 85.074 15.835 84.792 15.893 84.552 16.01 C 84.311 16.127 84.106 16.284 83.936 16.481 C 83.764 16.677 83.624 16.903 83.513 17.161 C 83.401 17.417 83.314 17.684 83.252 17.964 C 83.189 18.245 83.144 18.525 83.12 18.807 C 83.093 19.088 83.081 19.356 83.081 19.606 C 83.081 19.857 83.093 20.125 83.12 20.41 C 83.144 20.695 83.189 20.977 83.252 21.257 C 83.314 21.536 83.401 21.804 83.513 22.06 C 83.624 22.317 83.764 22.543 83.936 22.74 C 84.106 22.937 84.311 23.094 84.552 23.211 C 84.792 23.328 85.074 23.386 85.399 23.386 C 85.695 23.386 85.959 23.325 86.19 23.202 C 86.419 23.08 86.623 22.916 86.797 22.71 C 86.97 22.506 87.118 22.271 87.237 22.01 C 87.357 21.748 87.454 21.477 87.528 21.197 C 87.601 20.917 87.655 20.64 87.691 20.363 C 87.724 20.086 87.742 19.834 87.742 19.606 Z M 101.561 21.412 C 101.561 21.845 101.499 22.229 101.374 22.566 C 101.249 22.902 101.077 23.194 100.86 23.441 C 100.644 23.69 100.386 23.898 100.091 24.067 C 99.795 24.235 99.477 24.37 99.138 24.472 C 98.798 24.575 98.443 24.648 98.072 24.695 C 97.702 24.74 97.334 24.763 96.969 24.763 C 96.479 24.763 96.046 24.731 95.669 24.67 C 95.293 24.606 94.934 24.505 94.592 24.365 C 94.249 24.226 93.909 24.044 93.57 23.822 C 93.23 23.6 92.852 23.329 92.437 23.01 L 94.122 21.633 C 94.276 21.924 94.48 22.188 94.733 22.424 C 94.986 22.661 95.25 22.865 95.523 23.036 C 95.797 23.206 96.062 23.338 96.32 23.429 C 96.575 23.52 96.784 23.566 96.944 23.566 C 97.075 23.566 97.223 23.562 97.388 23.553 C 97.554 23.544 97.722 23.528 97.893 23.503 C 98.064 23.476 98.232 23.437 98.396 23.386 C 98.563 23.334 98.709 23.264 98.838 23.177 C 98.967 23.088 99.068 22.977 99.146 22.844 C 99.222 22.709 99.262 22.548 99.262 22.36 C 99.262 22.167 99.211 21.997 99.112 21.851 C 99.011 21.706 98.882 21.579 98.723 21.471 C 98.563 21.362 98.38 21.271 98.175 21.197 C 97.971 21.123 97.763 21.057 97.556 21 C 97.347 20.943 97.147 20.893 96.952 20.851 C 96.758 20.808 96.591 20.766 96.448 20.726 C 96.185 20.653 95.908 20.577 95.618 20.5 C 95.328 20.423 95.039 20.334 94.756 20.236 C 94.469 20.135 94.196 20.017 93.937 19.88 C 93.678 19.743 93.451 19.579 93.252 19.388 C 93.056 19.198 92.9 18.972 92.783 18.713 C 92.666 18.453 92.608 18.15 92.608 17.803 C 92.608 17.163 92.734 16.628 92.988 16.199 C 93.242 15.768 93.576 15.423 93.994 15.164 C 94.409 14.904 94.883 14.72 95.412 14.612 C 95.943 14.503 96.481 14.449 97.03 14.449 C 97.405 14.449 97.801 14.489 98.218 14.565 C 98.634 14.642 99.038 14.756 99.433 14.907 C 99.826 15.057 100.194 15.242 100.535 15.458 C 100.876 15.674 101.162 15.924 101.391 16.203 L 99.706 17.588 C 99.58 17.246 99.416 16.952 99.214 16.707 C 99.011 16.462 98.792 16.262 98.555 16.104 C 98.319 15.947 98.077 15.832 97.829 15.758 C 97.58 15.683 97.35 15.647 97.141 15.647 C 96.935 15.647 96.704 15.656 96.448 15.672 C 96.192 15.689 95.95 15.737 95.725 15.818 C 95.5 15.897 95.308 16.018 95.153 16.181 C 94.995 16.344 94.917 16.567 94.917 16.852 C 94.917 17.057 94.963 17.233 95.058 17.378 C 95.152 17.524 95.276 17.649 95.43 17.755 C 95.584 17.86 95.759 17.948 95.955 18.02 C 96.152 18.091 96.353 18.154 96.558 18.207 C 96.764 18.263 96.963 18.31 97.157 18.349 C 97.351 18.389 97.526 18.432 97.679 18.477 C 97.941 18.551 98.219 18.627 98.513 18.704 C 98.807 18.78 99.096 18.87 99.38 18.97 C 99.666 19.069 99.941 19.186 100.206 19.32 C 100.471 19.453 100.704 19.618 100.904 19.811 C 101.103 20.005 101.263 20.231 101.382 20.491 C 101.501 20.751 101.561 21.057 101.561 21.412 Z M 111.884 21.412 C 111.884 21.845 111.822 22.229 111.696 22.566 C 111.571 22.902 111.399 23.194 111.183 23.441 C 110.967 23.69 110.711 23.898 110.413 24.067 C 110.117 24.235 109.799 24.37 109.46 24.472 C 109.121 24.575 108.766 24.648 108.395 24.695 C 108.025 24.74 107.658 24.763 107.292 24.763 C 106.803 24.763 106.368 24.731 105.991 24.67 C 105.616 24.606 105.256 24.505 104.915 24.365 C 104.572 24.226 104.232 24.044 103.893 23.822 C 103.552 23.6 103.176 23.329 102.76 23.01 L 104.445 21.633 C 104.598 21.924 104.802 22.188 105.056 22.424 C 105.309 22.661 105.574 22.865 105.847 23.036 C 106.121 23.206 106.386 23.338 106.642 23.429 C 106.898 23.52 107.107 23.566 107.266 23.566 C 107.398 23.566 107.546 23.562 107.711 23.553 C 107.877 23.544 108.044 23.528 108.216 23.503 C 108.386 23.476 108.555 23.437 108.721 23.386 C 108.886 23.334 109.031 23.264 109.16 23.177 C 109.288 23.088 109.391 22.977 109.468 22.844 C 109.546 22.709 109.584 22.548 109.584 22.36 C 109.584 22.167 109.534 21.997 109.435 21.851 C 109.335 21.706 109.205 21.579 109.046 21.471 C 108.885 21.362 108.702 21.271 108.498 21.197 C 108.292 21.123 108.085 21.057 107.879 21 C 107.67 20.943 107.468 20.893 107.276 20.851 C 107.081 20.808 106.912 20.766 106.771 20.726 C 106.508 20.653 106.231 20.577 105.941 20.5 C 105.649 20.423 105.362 20.334 105.077 20.236 C 104.792 20.135 104.52 20.017 104.261 19.88 C 104.002 19.743 103.773 19.579 103.576 19.388 C 103.379 19.198 103.222 18.972 103.106 18.713 C 102.988 18.453 102.93 18.15 102.93 17.803 C 102.93 17.163 103.056 16.628 103.311 16.199 C 103.565 15.768 103.9 15.423 104.316 15.164 C 104.733 14.904 105.205 14.72 105.735 14.612 C 106.265 14.503 106.804 14.449 107.353 14.449 C 107.728 14.449 108.124 14.489 108.54 14.565 C 108.956 14.642 109.361 14.756 109.755 14.907 C 110.148 15.057 110.515 15.242 110.858 15.458 C 111.2 15.674 111.486 15.924 111.714 16.203 L 110.029 17.588 C 109.903 17.246 109.74 16.952 109.536 16.707 C 109.335 16.462 109.115 16.262 108.878 16.104 C 108.641 15.947 108.399 15.832 108.152 15.758 C 107.904 15.683 107.674 15.647 107.463 15.647 C 107.258 15.647 107.026 15.656 106.771 15.672 C 106.513 15.689 106.273 15.737 106.047 15.818 C 105.822 15.897 105.631 16.018 105.475 16.181 C 105.317 16.344 105.239 16.567 105.239 16.852 C 105.239 17.057 105.286 17.233 105.38 17.378 C 105.475 17.524 105.597 17.649 105.753 17.755 C 105.907 17.86 106.082 17.948 106.278 18.02 C 106.474 18.091 106.676 18.154 106.881 18.207 C 107.085 18.263 107.286 18.31 107.48 18.349 C 107.674 18.389 107.848 18.432 108.001 18.477 C 108.263 18.551 108.542 18.627 108.836 18.704 C 109.129 18.78 109.418 18.87 109.703 18.97 C 109.989 19.069 110.264 19.186 110.528 19.32 C 110.793 19.453 111.026 19.618 111.226 19.811 C 111.426 20.005 111.585 20.231 111.705 20.491 C 111.824 20.751 111.884 21.057 111.884 21.412 Z M 123.651 24.566 L 120.76 24.566 L 120.76 23.386 C 120.419 23.854 120.007 24.2 119.525 24.426 C 119.043 24.65 118.515 24.763 117.938 24.763 C 117.186 24.763 116.513 24.63 115.92 24.361 C 115.327 24.092 114.824 23.728 114.415 23.263 C 114.004 22.797 113.691 22.251 113.475 21.625 C 113.257 20.997 113.15 20.324 113.15 19.606 C 113.15 18.887 113.257 18.215 113.475 17.588 C 113.691 16.961 114.004 16.415 114.415 15.95 C 114.824 15.486 115.327 15.118 115.92 14.85 C 116.513 14.583 117.186 14.449 117.938 14.449 C 118.319 14.449 118.683 14.506 119.028 14.621 C 119.374 14.734 119.69 14.896 119.978 15.104 C 120.266 15.313 120.519 15.562 120.739 15.856 C 120.958 16.149 121.131 16.476 121.257 16.835 L 122.539 14.689 L 123.651 14.689 L 123.651 24.566 Z M 120.743 19.606 C 120.743 19.351 120.731 19.079 120.705 18.795 C 120.68 18.509 120.635 18.226 120.573 17.947 C 120.51 17.667 120.423 17.4 120.311 17.148 C 120.2 16.894 120.057 16.668 119.884 16.473 C 119.71 16.276 119.5 16.12 119.255 16.005 C 119.01 15.891 118.725 15.835 118.4 15.835 C 118.075 15.835 117.793 15.893 117.553 16.01 C 117.314 16.127 117.109 16.284 116.938 16.481 C 116.767 16.677 116.624 16.903 116.515 17.161 C 116.402 17.417 116.317 17.684 116.254 17.964 C 116.191 18.245 116.146 18.525 116.121 18.807 C 116.095 19.088 116.082 19.356 116.082 19.606 C 116.082 19.857 116.095 20.125 116.121 20.41 C 116.146 20.695 116.191 20.977 116.254 21.257 C 116.317 21.536 116.402 21.804 116.515 22.06 C 116.624 22.317 116.767 22.543 116.938 22.74 C 117.109 22.937 117.314 23.094 117.553 23.211 C 117.793 23.328 118.075 23.386 118.4 23.386 C 118.697 23.386 118.96 23.325 119.192 23.202 C 119.422 23.08 119.625 22.916 119.799 22.71 C 119.972 22.506 120.119 22.271 120.238 22.01 C 120.359 21.748 120.455 21.477 120.529 21.197 C 120.603 20.917 120.657 20.64 120.693 20.363 C 120.727 20.086 120.743 19.834 120.743 19.606 Z M 136.008 23.378 C 136.008 24.164 135.892 24.906 135.657 25.6 C 135.424 26.296 135.086 26.905 134.64 27.427 C 134.196 27.949 133.65 28.362 133.002 28.668 C 132.354 28.972 131.618 29.125 130.791 29.125 C 130.335 29.125 129.875 29.073 129.41 28.971 C 128.946 28.868 128.508 28.71 128.094 28.496 C 127.68 28.283 127.309 28.011 126.982 27.683 C 126.655 27.355 126.396 26.969 126.207 26.525 L 127.456 26.055 C 127.564 26.335 127.707 26.591 127.881 26.824 C 128.054 27.058 128.254 27.258 128.484 27.427 C 128.711 27.594 128.961 27.727 129.235 27.82 C 129.508 27.915 129.797 27.962 130.099 27.962 C 130.669 27.962 131.147 27.845 131.532 27.611 C 131.917 27.377 132.225 27.073 132.46 26.695 C 132.694 26.319 132.861 25.893 132.964 25.417 C 133.067 24.941 133.117 24.458 133.117 23.968 L 133.117 23.386 C 132.775 23.854 132.364 24.2 131.882 24.426 C 131.399 24.65 130.872 24.763 130.296 24.763 C 129.544 24.763 128.87 24.63 128.278 24.361 C 127.685 24.092 127.182 23.728 126.773 23.263 C 126.362 22.797 126.049 22.251 125.832 21.625 C 125.616 20.997 125.507 20.324 125.507 19.606 C 125.507 18.887 125.616 18.215 125.832 17.588 C 126.049 16.961 126.362 16.415 126.773 15.95 C 127.182 15.486 127.685 15.118 128.278 14.85 C 128.87 14.583 129.544 14.449 130.296 14.449 C 130.677 14.449 131.042 14.506 131.386 14.621 C 131.731 14.734 132.048 14.896 132.336 15.104 C 132.623 15.313 132.877 15.562 133.097 15.856 C 133.315 16.149 133.489 16.476 133.614 16.835 L 134.896 14.689 L 136.008 14.689 L 136.008 23.378 Z M 133.102 19.606 C 133.102 19.351 133.088 19.079 133.063 18.795 C 133.037 18.509 132.993 18.226 132.93 17.947 C 132.868 17.667 132.78 17.4 132.669 17.148 C 132.558 16.894 132.416 16.668 132.24 16.473 C 132.067 16.276 131.859 16.12 131.613 16.005 C 131.368 15.891 131.083 15.835 130.758 15.835 C 130.433 15.835 130.15 15.893 129.911 16.01 C 129.672 16.127 129.467 16.284 129.294 16.481 C 129.124 16.677 128.983 16.903 128.872 17.161 C 128.761 17.417 128.674 17.684 128.611 17.964 C 128.548 18.245 128.504 18.525 128.478 18.807 C 128.452 19.088 128.44 19.356 128.44 19.606 C 128.44 19.857 128.452 20.125 128.478 20.41 C 128.504 20.695 128.548 20.977 128.611 21.257 C 128.674 21.536 128.761 21.804 128.872 22.06 C 128.983 22.317 129.124 22.543 129.294 22.74 C 129.467 22.937 129.672 23.094 129.911 23.211 C 130.15 23.328 130.433 23.386 130.758 23.386 C 131.054 23.386 131.318 23.325 131.549 23.202 C 131.78 23.08 131.982 22.916 132.156 22.71 C 132.331 22.506 132.477 22.271 132.597 22.01 C 132.716 21.748 132.813 21.477 132.888 21.197 C 132.961 20.917 133.015 20.64 133.049 20.363 C 133.084 20.086 133.102 19.834 133.102 19.606 Z M 140.798 19.88 C 141.15 19.96 141.505 20.024 141.859 20.069 C 142.211 20.114 142.568 20.137 142.927 20.137 C 143.304 20.137 143.653 20.101 143.974 20.03 C 144.296 19.959 144.576 19.839 144.813 19.67 C 145.049 19.502 145.235 19.279 145.373 19 C 145.509 18.719 145.577 18.372 145.577 17.955 C 145.577 17.62 145.532 17.312 145.441 17.032 C 145.35 16.753 145.215 16.513 145.034 16.314 C 144.856 16.114 144.635 15.958 144.372 15.848 C 144.111 15.735 143.805 15.681 143.457 15.681 C 143.132 15.681 142.84 15.74 142.58 15.861 C 142.32 15.98 142.093 16.141 141.897 16.344 C 141.699 16.546 141.531 16.781 141.393 17.048 C 141.252 17.317 141.136 17.596 141.045 17.887 C 140.954 18.177 140.89 18.472 140.849 18.768 C 140.809 19.064 140.789 19.344 140.789 19.606 C 140.789 19.651 140.789 19.698 140.789 19.743 C 140.789 19.788 140.792 19.834 140.798 19.88 Z M 147.922 17.93 C 147.922 18.334 147.856 18.696 147.725 19.012 C 147.594 19.329 147.416 19.606 147.191 19.845 C 146.965 20.085 146.705 20.287 146.407 20.453 C 146.112 20.618 145.795 20.753 145.459 20.86 C 145.122 20.965 144.775 21.04 144.419 21.086 C 144.064 21.132 143.717 21.154 143.38 21.154 C 142.953 21.154 142.531 21.125 142.115 21.064 C 141.698 21.004 141.288 20.909 140.883 20.778 C 140.946 21.154 141.045 21.512 141.183 21.851 C 141.319 22.19 141.502 22.488 141.731 22.74 C 141.958 22.993 142.238 23.195 142.572 23.343 C 142.905 23.491 143.301 23.566 143.756 23.566 C 144.059 23.566 144.346 23.52 144.62 23.429 C 144.894 23.338 145.144 23.209 145.373 23.044 C 145.601 22.878 145.802 22.683 145.976 22.454 C 146.15 22.226 146.291 21.972 146.399 21.693 L 147.648 22.155 C 147.46 22.605 147.202 22.994 146.874 23.322 C 146.546 23.65 146.176 23.921 145.763 24.135 C 145.348 24.349 144.909 24.506 144.446 24.608 C 143.981 24.711 143.52 24.763 143.064 24.763 C 142.31 24.763 141.616 24.635 140.977 24.382 C 140.339 24.129 139.789 23.774 139.327 23.318 C 138.864 22.861 138.503 22.317 138.241 21.686 C 137.977 21.052 137.847 20.359 137.847 19.606 C 137.847 18.854 137.977 18.161 138.241 17.529 C 138.503 16.895 138.864 16.35 139.327 15.895 C 139.789 15.439 140.339 15.084 140.977 14.83 C 141.616 14.575 142.31 14.449 143.064 14.449 C 143.429 14.449 143.802 14.476 144.185 14.526 C 144.566 14.576 144.937 14.659 145.296 14.771 C 145.655 14.881 145.995 15.025 146.315 15.202 C 146.632 15.379 146.91 15.596 147.147 15.856 C 147.384 16.116 147.572 16.416 147.712 16.758 C 147.851 17.101 147.922 17.491 147.922 17.93 Z" style="fill: rgb(255, 255, 255);"/>
  <path d="M 78.968 29.78 C 78.968 30.458 78.887 31.165 78.728 31.9 C 78.568 32.635 78.344 33.352 78.056 34.051 C 77.769 34.75 77.423 35.41 77.018 36.031 C 76.612 36.653 76.162 37.191 75.667 37.647 L 74.58 37.057 C 74.745 36.761 74.897 36.427 75.035 36.057 C 75.171 35.687 75.295 35.296 75.41 34.886 C 75.523 34.475 75.623 34.054 75.71 33.619 C 75.794 33.186 75.867 32.755 75.927 32.324 C 75.988 31.893 76.032 31.475 76.06 31.07 C 76.088 30.666 76.102 30.287 76.102 29.934 C 76.102 29.734 76.097 29.517 76.085 29.284 C 76.074 29.05 76.05 28.815 76.012 28.583 C 75.976 28.348 75.919 28.125 75.846 27.912 C 75.772 27.697 75.67 27.507 75.543 27.339 C 75.414 27.17 75.254 27.035 75.064 26.935 C 74.873 26.836 74.643 26.786 74.376 26.786 C 74.113 26.786 73.889 26.856 73.703 26.997 C 73.519 27.135 73.36 27.316 73.23 27.538 C 73.099 27.76 72.994 28.011 72.917 28.292 C 72.84 28.571 72.782 28.852 72.742 29.134 C 72.701 29.416 72.675 29.686 72.661 29.942 C 72.645 30.198 72.639 30.414 72.639 30.592 L 72.639 35.543 L 69.757 35.543 L 69.757 30.943 C 69.757 30.743 69.76 30.502 69.764 30.22 C 69.77 29.938 69.763 29.642 69.744 29.335 C 69.724 29.026 69.687 28.721 69.633 28.415 C 69.579 28.111 69.493 27.839 69.376 27.599 C 69.259 27.36 69.1 27.165 68.902 27.013 C 68.702 26.862 68.452 26.786 68.149 26.786 C 67.894 26.786 67.678 26.858 67.504 27.001 C 67.329 27.143 67.184 27.327 67.068 27.553 C 66.951 27.778 66.859 28.03 66.794 28.313 C 66.728 28.595 66.681 28.878 66.649 29.16 C 66.617 29.442 66.598 29.71 66.593 29.964 C 66.588 30.217 66.585 30.427 66.585 30.592 L 66.585 35.543 L 63.685 35.543 L 63.685 25.666 L 64.797 25.666 L 65.857 27.966 C 66.097 27.168 66.475 26.546 66.991 26.097 C 67.506 25.651 68.191 25.426 69.047 25.426 C 69.816 25.426 70.455 25.586 70.963 25.906 C 71.471 26.225 71.869 26.744 72.16 27.462 C 72.326 27.149 72.508 26.867 72.712 26.616 C 72.913 26.364 73.139 26.15 73.387 25.974 C 73.635 25.797 73.91 25.662 74.213 25.568 C 74.514 25.473 74.847 25.426 75.213 25.426 C 75.886 25.426 76.461 25.536 76.937 25.756 C 77.412 25.975 77.801 26.279 78.104 26.668 C 78.405 27.054 78.625 27.515 78.763 28.049 C 78.898 28.581 78.968 29.158 78.968 29.78 Z M 90.838 35.543 L 87.947 35.543 L 87.947 34.363 C 87.604 34.831 87.193 35.177 86.71 35.402 C 86.229 35.627 85.7 35.739 85.125 35.739 C 84.371 35.739 83.699 35.606 83.106 35.338 C 82.513 35.069 82.011 34.704 81.601 34.239 C 81.192 33.775 80.877 33.23 80.66 32.602 C 80.444 31.974 80.335 31.301 80.335 30.583 C 80.335 29.865 80.444 29.193 80.66 28.565 C 80.877 27.938 81.192 27.393 81.601 26.928 C 82.011 26.463 82.513 26.096 83.106 25.83 C 83.699 25.561 84.371 25.426 85.125 25.426 C 85.507 25.426 85.869 25.483 86.214 25.597 C 86.56 25.712 86.876 25.872 87.165 26.081 C 87.452 26.289 87.705 26.54 87.924 26.833 C 88.144 27.126 88.317 27.453 88.443 27.813 L 89.725 25.666 L 90.838 25.666 L 90.838 35.543 Z M 87.928 30.583 C 87.928 30.327 87.916 30.056 87.891 29.771 C 87.865 29.487 87.821 29.204 87.759 28.924 C 87.696 28.644 87.609 28.379 87.499 28.125 C 87.386 27.871 87.243 27.646 87.07 27.449 C 86.896 27.252 86.686 27.097 86.44 26.982 C 86.196 26.869 85.911 26.812 85.585 26.812 C 85.26 26.812 84.978 26.87 84.74 26.987 C 84.499 27.104 84.295 27.261 84.124 27.457 C 83.953 27.654 83.811 27.882 83.701 28.137 C 83.589 28.394 83.502 28.662 83.439 28.942 C 83.377 29.221 83.332 29.501 83.308 29.784 C 83.281 30.066 83.268 30.332 83.268 30.583 C 83.268 30.834 83.281 31.102 83.308 31.387 C 83.332 31.673 83.377 31.955 83.439 32.234 C 83.502 32.513 83.589 32.782 83.701 33.039 C 83.811 33.294 83.953 33.52 84.124 33.718 C 84.295 33.916 84.499 34.071 84.74 34.188 C 84.978 34.306 85.26 34.363 85.585 34.363 C 85.883 34.363 86.145 34.302 86.377 34.179 C 86.608 34.057 86.811 33.893 86.984 33.687 C 87.157 33.482 87.304 33.248 87.425 32.987 C 87.545 32.724 87.641 32.453 87.714 32.174 C 87.789 31.894 87.844 31.617 87.878 31.34 C 87.912 31.064 87.928 30.811 87.928 30.583 Z M 101.749 32.388 C 101.749 32.822 101.686 33.206 101.561 33.542 C 101.435 33.878 101.264 34.17 101.049 34.42 C 100.831 34.667 100.576 34.875 100.278 35.043 C 99.982 35.212 99.664 35.347 99.325 35.45 C 98.985 35.552 98.632 35.625 98.26 35.671 C 97.89 35.717 97.522 35.739 97.157 35.739 C 96.667 35.739 96.233 35.71 95.856 35.647 C 95.481 35.585 95.122 35.482 94.779 35.343 C 94.437 35.204 94.096 35.023 93.757 34.801 C 93.418 34.577 93.041 34.306 92.625 33.987 L 94.309 32.611 C 94.463 32.902 94.667 33.165 94.921 33.401 C 95.174 33.639 95.438 33.842 95.712 34.013 C 95.986 34.183 96.252 34.315 96.507 34.406 C 96.763 34.496 96.971 34.543 97.131 34.543 C 97.262 34.543 97.411 34.539 97.576 34.531 C 97.742 34.521 97.909 34.504 98.082 34.48 C 98.251 34.453 98.42 34.415 98.586 34.363 C 98.75 34.313 98.897 34.242 99.026 34.153 C 99.153 34.066 99.257 33.954 99.334 33.82 C 99.411 33.686 99.448 33.526 99.448 33.337 C 99.448 33.144 99.399 32.975 99.3 32.828 C 99.2 32.683 99.07 32.557 98.911 32.448 C 98.75 32.34 98.568 32.248 98.364 32.174 C 98.158 32.1 97.951 32.034 97.744 31.978 C 97.535 31.921 97.334 31.872 97.141 31.828 C 96.946 31.785 96.778 31.743 96.635 31.704 C 96.373 31.629 96.096 31.554 95.806 31.478 C 95.514 31.4 95.228 31.312 94.942 31.212 C 94.657 31.113 94.384 30.995 94.125 30.857 C 93.866 30.72 93.637 30.557 93.442 30.365 C 93.245 30.175 93.087 29.949 92.971 29.69 C 92.853 29.43 92.795 29.127 92.795 28.78 C 92.795 28.141 92.923 27.606 93.177 27.175 C 93.43 26.745 93.765 26.401 94.181 26.141 C 94.597 25.881 95.07 25.697 95.601 25.589 C 96.129 25.48 96.67 25.426 97.217 25.426 C 97.593 25.426 97.989 25.465 98.406 25.542 C 98.822 25.619 99.226 25.733 99.62 25.884 C 100.013 26.035 100.38 26.219 100.722 26.435 C 101.065 26.653 101.35 26.9 101.578 27.18 L 99.894 28.565 C 99.768 28.224 99.604 27.928 99.402 27.684 C 99.2 27.44 98.98 27.238 98.744 27.081 C 98.507 26.924 98.264 26.81 98.016 26.736 C 97.769 26.662 97.539 26.623 97.327 26.623 C 97.122 26.623 96.892 26.632 96.635 26.649 C 96.379 26.667 96.138 26.715 95.913 26.795 C 95.687 26.874 95.496 26.997 95.34 27.159 C 95.183 27.32 95.104 27.544 95.104 27.83 C 95.104 28.034 95.152 28.21 95.244 28.355 C 95.339 28.501 95.463 28.626 95.618 28.732 C 95.771 28.837 95.946 28.926 96.144 28.997 C 96.34 29.069 96.541 29.131 96.747 29.185 C 96.951 29.239 97.152 29.287 97.345 29.327 C 97.54 29.365 97.713 29.409 97.867 29.455 C 98.129 29.529 98.407 29.605 98.701 29.682 C 98.994 29.758 99.282 29.846 99.569 29.947 C 99.854 30.046 100.129 30.163 100.394 30.297 C 100.659 30.432 100.891 30.595 101.091 30.789 C 101.291 30.983 101.45 31.208 101.57 31.468 C 101.69 31.728 101.749 32.034 101.749 32.388 Z M 112.072 32.388 C 112.072 32.822 112.01 33.206 111.884 33.542 C 111.759 33.878 111.586 34.17 111.371 34.42 C 111.154 34.667 110.898 34.875 110.602 35.043 C 110.304 35.212 109.986 35.347 109.647 35.45 C 109.308 35.552 108.953 35.625 108.583 35.671 C 108.213 35.717 107.844 35.739 107.48 35.739 C 106.989 35.739 106.556 35.71 106.18 35.647 C 105.803 35.585 105.444 35.482 105.101 35.343 C 104.759 35.204 104.419 35.023 104.08 34.801 C 103.741 34.577 103.363 34.306 102.946 33.987 L 104.632 32.611 C 104.786 32.902 104.988 33.165 105.243 33.401 C 105.498 33.639 105.76 33.842 106.034 34.013 C 106.307 34.183 106.573 34.315 106.83 34.406 C 107.085 34.496 107.294 34.543 107.454 34.543 C 107.585 34.543 107.734 34.539 107.899 34.531 C 108.063 34.521 108.232 34.504 108.403 34.48 C 108.574 34.453 108.742 34.415 108.908 34.363 C 109.073 34.313 109.22 34.242 109.348 34.153 C 109.476 34.066 109.579 33.954 109.657 33.82 C 109.733 33.686 109.772 33.526 109.772 33.337 C 109.772 33.144 109.722 32.975 109.621 32.828 C 109.521 32.683 109.392 32.557 109.233 32.448 C 109.072 32.34 108.891 32.248 108.685 32.174 C 108.48 32.1 108.274 32.034 108.065 31.978 C 107.856 31.921 107.657 31.872 107.462 31.828 C 107.269 31.785 107.1 31.743 106.958 31.704 C 106.696 31.629 106.419 31.554 106.128 31.478 C 105.838 31.4 105.549 31.312 105.264 31.212 C 104.979 31.113 104.706 30.995 104.448 30.857 C 104.189 30.72 103.96 30.557 103.764 30.365 C 103.567 30.175 103.409 29.949 103.294 29.69 C 103.177 29.43 103.118 29.127 103.118 28.78 C 103.118 28.141 103.245 27.606 103.499 27.175 C 103.752 26.745 104.086 26.401 104.504 26.141 C 104.919 25.881 105.392 25.697 105.923 25.589 C 106.454 25.48 106.993 25.426 107.539 25.426 C 107.916 25.426 108.312 25.465 108.728 25.542 C 109.144 25.619 109.55 25.733 109.943 25.884 C 110.335 26.035 110.704 26.219 111.046 26.435 C 111.388 26.653 111.673 26.9 111.901 27.18 L 110.217 28.565 C 110.091 28.224 109.927 27.928 109.725 27.684 C 109.521 27.44 109.303 27.238 109.067 27.081 C 108.83 26.924 108.588 26.81 108.339 26.736 C 108.091 26.662 107.861 26.623 107.65 26.623 C 107.445 26.623 107.216 26.632 106.958 26.649 C 106.701 26.667 106.46 26.715 106.236 26.795 C 106.01 26.874 105.818 26.997 105.662 27.159 C 105.506 27.32 105.427 27.544 105.427 27.83 C 105.427 28.034 105.474 28.21 105.569 28.355 C 105.662 28.501 105.786 28.626 105.941 28.732 C 106.094 28.837 106.268 28.926 106.467 28.997 C 106.663 29.069 106.864 29.131 107.07 29.185 C 107.275 29.239 107.474 29.287 107.668 29.327 C 107.861 29.365 108.036 29.409 108.189 29.455 C 108.452 29.529 108.729 29.605 109.023 29.682 C 109.317 29.758 109.607 29.846 109.892 29.947 C 110.176 30.046 110.451 30.163 110.717 30.297 C 110.983 30.432 111.213 30.595 111.413 30.789 C 111.612 30.983 111.772 31.208 111.892 31.468 C 112.012 31.728 112.072 32.034 112.072 32.388 Z M 123.839 35.543 L 120.948 35.543 L 120.948 34.363 C 120.605 34.831 120.193 35.177 119.712 35.402 C 119.231 35.627 118.701 35.739 118.126 35.739 C 117.373 35.739 116.701 35.606 116.108 35.338 C 115.514 35.069 115.012 34.704 114.602 34.239 C 114.193 33.775 113.878 33.23 113.661 32.602 C 113.445 31.974 113.336 31.301 113.336 30.583 C 113.336 29.865 113.445 29.193 113.661 28.565 C 113.878 27.938 114.193 27.393 114.602 26.928 C 115.012 26.463 115.514 26.096 116.108 25.83 C 116.701 25.561 117.373 25.426 118.126 25.426 C 118.507 25.426 118.871 25.483 119.215 25.597 C 119.56 25.712 119.878 25.872 120.165 26.081 C 120.453 26.289 120.707 26.54 120.926 26.833 C 121.146 27.126 121.319 27.453 121.443 27.813 L 122.727 25.666 L 123.839 25.666 L 123.839 35.543 Z M 120.931 30.583 C 120.931 30.327 120.918 30.056 120.893 29.771 C 120.866 29.487 120.822 29.204 120.76 28.924 C 120.697 28.644 120.61 28.379 120.499 28.125 C 120.387 27.871 120.246 27.646 120.072 27.449 C 119.898 27.252 119.688 27.097 119.443 26.982 C 119.198 26.869 118.913 26.812 118.589 26.812 C 118.262 26.812 117.98 26.87 117.742 26.987 C 117.501 27.104 117.296 27.261 117.126 27.457 C 116.953 27.654 116.812 27.882 116.702 28.137 C 116.592 28.394 116.504 28.662 116.441 28.942 C 116.378 29.221 116.333 29.501 116.309 29.784 C 116.282 30.066 116.27 30.332 116.27 30.583 C 116.27 30.834 116.282 31.102 116.309 31.387 C 116.333 31.673 116.378 31.955 116.441 32.234 C 116.504 32.513 116.592 32.782 116.702 33.039 C 116.812 33.294 116.953 33.52 117.126 33.718 C 117.296 33.916 117.501 34.071 117.742 34.188 C 117.98 34.306 118.262 34.363 118.589 34.363 C 118.883 34.363 119.147 34.302 119.378 34.179 C 119.61 34.057 119.812 33.893 119.986 33.687 C 120.16 33.482 120.306 33.248 120.427 32.987 C 120.546 32.724 120.643 32.453 120.717 32.174 C 120.791 31.894 120.846 31.617 120.879 31.34 C 120.914 31.064 120.931 30.811 120.931 30.583 Z M 136.196 34.355 C 136.196 35.142 136.079 35.883 135.846 36.579 C 135.611 37.273 135.273 37.883 134.827 38.404 C 134.383 38.926 133.837 39.339 133.19 39.645 C 132.543 39.949 131.806 40.102 130.981 40.102 C 130.522 40.102 130.063 40.05 129.599 39.948 C 129.134 39.845 128.694 39.688 128.281 39.473 C 127.867 39.26 127.497 38.989 127.169 38.661 C 126.842 38.333 126.584 37.946 126.396 37.502 L 127.644 37.031 C 127.753 37.311 127.894 37.568 128.067 37.801 C 128.242 38.036 128.443 38.236 128.67 38.404 C 128.898 38.573 129.149 38.704 129.424 38.799 C 129.696 38.891 129.985 38.939 130.287 38.939 C 130.857 38.939 131.334 38.822 131.72 38.588 C 132.103 38.355 132.414 38.05 132.647 37.672 C 132.88 37.297 133.048 36.87 133.152 36.395 C 133.254 35.919 133.307 35.435 133.307 34.945 L 133.307 34.363 C 132.963 34.831 132.552 35.177 132.07 35.402 C 131.589 35.627 131.058 35.739 130.484 35.739 C 129.73 35.739 129.058 35.606 128.464 35.338 C 127.873 35.069 127.37 34.704 126.959 34.239 C 126.549 33.775 126.235 33.23 126.019 32.602 C 125.802 31.974 125.694 31.301 125.694 30.583 C 125.694 29.865 125.802 29.193 126.019 28.565 C 126.235 27.938 126.549 27.393 126.959 26.928 C 127.37 26.463 127.873 26.096 128.464 25.83 C 129.058 25.561 129.73 25.426 130.484 25.426 C 130.866 25.426 131.228 25.483 131.574 25.597 C 131.919 25.712 132.234 25.872 132.524 26.081 C 132.812 26.289 133.064 26.54 133.284 26.833 C 133.504 27.126 133.676 27.453 133.802 27.813 L 135.085 25.666 L 136.196 25.666 L 136.196 34.355 Z M 133.288 30.583 C 133.288 30.327 133.275 30.056 133.25 29.771 C 133.224 29.487 133.179 29.204 133.117 28.924 C 133.055 28.644 132.969 28.379 132.858 28.125 C 132.746 27.871 132.603 27.646 132.429 27.449 C 132.255 27.252 132.046 27.097 131.8 26.982 C 131.555 26.869 131.27 26.812 130.945 26.812 C 130.62 26.812 130.338 26.87 130.099 26.987 C 129.859 27.104 129.654 27.261 129.483 27.457 C 129.312 27.654 129.171 27.882 129.06 28.137 C 128.948 28.394 128.861 28.662 128.798 28.942 C 128.736 29.221 128.691 29.501 128.666 29.784 C 128.64 30.066 128.628 30.332 128.628 30.583 C 128.628 30.834 128.64 31.102 128.666 31.387 C 128.691 31.673 128.736 31.955 128.798 32.234 C 128.861 32.513 128.948 32.782 129.06 33.039 C 129.171 33.294 129.312 33.52 129.483 33.718 C 129.654 33.916 129.859 34.071 130.099 34.188 C 130.338 34.306 130.62 34.363 130.945 34.363 C 131.241 34.363 131.505 34.302 131.736 34.179 C 131.967 34.057 132.17 33.893 132.344 33.687 C 132.517 33.482 132.664 33.248 132.784 32.987 C 132.902 32.724 133.001 32.453 133.075 32.174 C 133.149 31.894 133.203 31.617 133.237 31.34 C 133.27 31.064 133.288 30.811 133.288 30.583 Z M 140.985 30.857 C 141.339 30.936 141.692 31.001 142.045 31.046 C 142.4 31.092 142.756 31.114 143.115 31.114 C 143.492 31.114 143.841 31.078 144.163 31.006 C 144.484 30.935 144.764 30.816 145.001 30.649 C 145.237 30.479 145.423 30.255 145.561 29.976 C 145.697 29.697 145.767 29.349 145.767 28.934 C 145.767 28.598 145.72 28.289 145.629 28.009 C 145.538 27.729 145.402 27.492 145.224 27.292 C 145.043 27.092 144.822 26.935 144.561 26.825 C 144.297 26.715 143.994 26.658 143.645 26.658 C 143.319 26.658 143.028 26.719 142.767 26.837 C 142.508 26.958 142.281 27.119 142.084 27.32 C 141.888 27.523 141.72 27.759 141.58 28.026 C 141.441 28.294 141.325 28.574 141.234 28.865 C 141.142 29.156 141.077 29.449 141.036 29.745 C 140.997 30.042 140.977 30.321 140.977 30.583 C 140.977 30.628 140.977 30.674 140.977 30.72 C 140.977 30.766 140.98 30.811 140.985 30.857 Z M 148.109 28.907 C 148.109 29.312 148.044 29.673 147.912 29.989 C 147.78 30.306 147.604 30.583 147.378 30.823 C 147.153 31.063 146.892 31.265 146.597 31.43 C 146.3 31.596 145.983 31.731 145.645 31.836 C 145.309 31.942 144.963 32.017 144.608 32.063 C 144.25 32.108 143.905 32.131 143.569 32.131 C 143.14 32.131 142.718 32.101 142.302 32.041 C 141.886 31.982 141.475 31.887 141.071 31.755 C 141.134 32.131 141.234 32.49 141.37 32.828 C 141.507 33.168 141.689 33.465 141.918 33.718 C 142.145 33.971 142.425 34.172 142.76 34.321 C 143.094 34.47 143.489 34.543 143.944 34.543 C 144.247 34.543 144.534 34.496 144.808 34.406 C 145.081 34.315 145.332 34.186 145.561 34.021 C 145.788 33.855 145.989 33.66 146.163 33.431 C 146.338 33.203 146.477 32.949 146.587 32.67 L 147.835 33.131 C 147.648 33.583 147.39 33.972 147.062 34.298 C 146.735 34.627 146.362 34.898 145.949 35.112 C 145.536 35.325 145.097 35.484 144.632 35.587 C 144.168 35.689 143.707 35.739 143.251 35.739 C 142.499 35.739 141.803 35.613 141.166 35.36 C 140.526 35.107 139.975 34.752 139.515 34.295 C 139.052 33.839 138.691 33.294 138.428 32.662 C 138.166 32.028 138.035 31.336 138.035 30.583 C 138.035 29.831 138.166 29.139 138.428 28.506 C 138.691 27.872 139.052 27.328 139.515 26.872 C 139.975 26.416 140.526 26.061 141.166 25.807 C 141.803 25.554 142.499 25.426 143.251 25.426 C 143.616 25.426 143.99 25.453 144.371 25.504 C 144.753 25.555 145.125 25.636 145.485 25.747 C 145.843 25.859 146.183 26.002 146.501 26.18 C 146.82 26.355 147.099 26.574 147.336 26.833 C 147.571 27.093 147.761 27.393 147.9 27.736 C 148.04 28.078 148.109 28.468 148.109 28.907 Z M 158.414 32.388 C 158.414 32.822 158.352 33.206 158.226 33.542 C 158.101 33.878 157.928 34.17 157.712 34.42 C 157.495 34.667 157.24 34.875 156.942 35.043 C 156.646 35.212 156.327 35.347 155.989 35.45 C 155.65 35.552 155.295 35.625 154.925 35.671 C 154.554 35.717 154.187 35.739 153.822 35.739 C 153.331 35.739 152.898 35.71 152.522 35.647 C 152.145 35.585 151.786 35.482 151.444 35.343 C 151.102 35.204 150.762 35.023 150.422 34.801 C 150.084 34.577 149.705 34.306 149.289 33.987 L 150.975 32.611 C 151.127 32.902 151.33 33.165 151.586 33.401 C 151.839 33.639 152.102 33.842 152.376 34.013 C 152.649 34.183 152.915 34.315 153.172 34.406 C 153.428 34.496 153.637 34.543 153.796 34.543 C 153.927 34.543 154.075 34.539 154.242 34.531 C 154.406 34.521 154.574 34.504 154.746 34.48 C 154.916 34.453 155.084 34.415 155.25 34.363 C 155.416 34.313 155.563 34.242 155.691 34.153 C 155.819 34.066 155.921 33.954 155.997 33.82 C 156.075 33.686 156.113 33.526 156.113 33.337 C 156.113 33.144 156.064 32.975 155.964 32.828 C 155.863 32.683 155.734 32.557 155.574 32.448 C 155.416 32.34 155.233 32.248 155.027 32.174 C 154.822 32.1 154.614 32.034 154.407 31.978 C 154.199 31.921 153.998 31.872 153.804 31.828 C 153.61 31.785 153.442 31.743 153.301 31.704 C 153.037 31.629 152.761 31.554 152.471 31.478 C 152.179 31.4 151.891 31.312 151.606 31.212 C 151.322 31.113 151.049 30.995 150.789 30.857 C 150.531 30.72 150.302 30.557 150.106 30.365 C 149.908 30.175 149.752 29.949 149.634 29.69 C 149.518 29.43 149.46 29.127 149.46 28.78 C 149.46 28.141 149.587 27.606 149.84 27.175 C 150.094 26.745 150.429 26.401 150.845 26.141 C 151.261 25.881 151.734 25.697 152.265 25.589 C 152.796 25.48 153.334 25.426 153.881 25.426 C 154.258 25.426 154.654 25.465 155.071 25.542 C 155.486 25.619 155.89 25.733 156.285 25.884 C 156.678 26.035 157.045 26.219 157.387 26.435 C 157.729 26.653 158.015 26.9 158.242 27.18 L 156.558 28.565 C 156.432 28.224 156.268 27.928 156.067 27.684 C 155.864 27.44 155.644 27.238 155.409 27.081 C 155.17 26.924 154.929 26.81 154.681 26.736 C 154.433 26.662 154.203 26.623 153.993 26.623 C 153.787 26.623 153.556 26.632 153.301 26.649 C 153.043 26.667 152.802 26.715 152.577 26.795 C 152.351 26.874 152.16 26.997 152.004 27.159 C 151.847 27.32 151.769 27.544 151.769 27.83 C 151.769 28.034 151.816 28.21 151.911 28.355 C 152.004 28.501 152.13 28.626 152.282 28.732 C 152.436 28.837 152.611 28.926 152.809 28.997 C 153.005 29.069 153.205 29.131 153.411 29.185 C 153.616 29.239 153.815 29.287 154.009 29.327 C 154.203 29.365 154.377 29.409 154.532 29.455 C 154.793 29.529 155.072 29.605 155.364 29.682 C 155.659 29.758 155.948 29.846 156.234 29.947 C 156.519 30.046 156.793 30.163 157.059 30.297 C 157.324 30.432 157.555 30.595 157.756 30.789 C 157.955 30.983 158.114 31.208 158.235 31.468 C 158.354 31.728 158.414 32.034 158.414 32.388 Z" style="fill: rgb(255, 255, 255);"/>
  <g transform="matrix(0.625523, 0, 0, 0.625523, -1.557811, 0.678904)" style="">
    <path d="M 54.3 57.405 C 54.367 57.471 54.135 57.361 54.131 57.357 C 53.738 56.899 53.096 56.273 51.597 55.263 C 49.299 53.714 46.651 52.578 43.904 51.953 C 42.7 51.68 41.702 51.418 40.726 51.112 C 36.628 49.818 32.883 47.683 30.319 45.19 C 29.554 44.444 29.437 44.266 29.214 43.414 C 28.596 41.054 28.005 34.594 28.351 33.948 C 28.54 33.596 29.226 34.109 29.756 34.989 C 30.158 35.648 30.424 36.445 30.748 37.894 C 31.484 41.226 32.124 42.638 33.189 43.279 C 33.976 43.748 35.854 44.348 38.748 45.068 C 40.318 45.452 41.011 45.609 41.049 45.575 C 41.06 45.564 40.961 45.492 40.826 45.414 C 40.275 45.101 38.864 44.305 38.133 43.896 C 36.143 42.788 35.72 42.498 34.9 41.673 C 34.281 41.043 33.964 40.542 33.993 40.229 C 34.008 40.068 34.026 40.051 34.227 40.035 C 34.543 40.007 35.158 40.229 36.379 40.803 C 37.292 41.233 38.48 41.735 39.807 42.253 C 42.108 43.145 42.827 43.447 44.099 44.059 C 46.445 45.197 47.873 46.171 49.418 47.716 C 52.265 50.559 53.832 53.475 54.173 56.574 L 54.238 57.215 L 54.311 56.59 C 54.635 53.709 55.923 51.123 58.403 48.407 C 60.732 45.854 62.917 44.504 67.819 42.588 C 70.221 41.646 71.085 41.288 72.088 40.81 C 73.336 40.219 73.918 40.011 74.246 40.035 C 74.464 40.051 74.48 40.062 74.497 40.229 C 74.535 40.636 73.856 41.539 72.98 42.242 C 72.216 42.855 71.67 43.177 67.835 45.302 C 67.639 45.408 67.471 45.52 67.45 45.548 C 67.412 45.615 67.384 45.615 67.935 45.492 C 71.151 44.766 73.918 43.965 74.999 43.435 C 76.337 42.782 77.023 41.345 77.847 37.431 C 78.119 36.122 78.5 35.213 79.062 34.499 C 79.34 34.138 79.748 33.836 79.948 33.836 C 80.187 33.836 80.222 34.002 80.216 35.145 C 80.204 37.704 79.687 41.981 79.184 43.669 C 78.984 44.331 78.85 44.532 78.137 45.218 C 75.644 47.622 72.088 49.672 68.181 50.961 C 66.915 51.378 66.324 51.541 64.724 51.919 C 64.021 52.087 63.118 52.327 62.717 52.454 C 59.992 53.335 57.426 54.7 55.388 56.363 C 54.539 57.053 54.238 57.344 54.3 57.405 Z" stroke="none" style="fill: rgb(168, 111, 86);"/>
    <path d="M 65.199 33.05 C 65.199 33.155 64.205 33.841 63.693 34.092 C 63.047 34.41 62.094 34.728 61.24 34.918 C 60.661 35.045 58.748 35.336 57.328 35.508 C 57.027 35.547 56.78 35.604 56.78 35.631 C 56.78 35.658 56.864 35.943 56.97 36.26 C 57.171 36.868 57.393 37.787 57.516 38.545 C 57.627 39.231 57.612 41.205 57.489 41.862 C 57.36 42.537 57.02 43.562 56.736 44.126 C 56.335 44.917 56.351 44.952 56.351 43.39 C 56.351 40.714 56.038 39.271 54.823 36.428 C 54.629 35.965 54.584 35.792 54.562 35.414 C 54.539 35.018 54.557 34.922 54.669 34.688 C 54.857 34.293 55.294 33.891 55.726 33.714 C 56.519 33.39 56.707 33.378 59.902 33.366 C 63.114 33.356 63.392 33.333 65.159 33.005 C 65.182 33.005 65.199 33.021 65.199 33.05 Z" stroke="none" style="fill: rgb(95, 147, 187);"/>
    <path d="M 46.748 32.944 C 48.128 33.216 49.289 33.775 50.382 34.684 C 53.759 37.492 55.538 43.597 54.662 49.394 C 54.511 50.38 54.21 51.624 54.16 51.472 C 54.133 51.411 53.976 50.699 53.803 49.884 C 52.254 42.648 51.496 40.352 49.84 37.877 C 48.362 35.675 46.29 34.081 43.793 33.228 C 43.503 33.128 43.24 33.028 43.218 33 C 43.168 32.955 43.373 32.921 44.149 32.827 C 44.801 32.754 46.094 32.81 46.748 32.944 Z" stroke="none" style="fill: rgb(95, 147, 187);"/>
    <path d="M 54.618 27.263 C 55.71 27.493 56.613 28.64 56.613 29.8 C 56.613 30.462 56.218 31.455 55.693 32.118 C 55.381 32.503 54.88 32.849 54.489 32.944 C 53.069 33.289 51.396 30.893 51.848 29.153 C 52.088 28.223 52.795 27.503 53.688 27.28 C 54.043 27.191 54.255 27.185 54.618 27.263 Z" stroke="none" style="fill: rgb(95, 147, 187);"/>
    <path d="M 55.131 6.092 C 60.188 11.76 63.977 17.319 66.342 22.542 C 66.57 23.044 66.948 23.94 67.189 24.537 C 67.423 25.129 67.634 25.636 67.663 25.664 C 67.69 25.697 68.036 25.618 68.504 25.484 C 71.961 24.476 76.666 23.645 81.119 23.244 C 83.672 23.016 88.065 22.876 90.596 22.937 C 92.224 22.977 92.24 22.977 92.24 23.098 C 92.24 23.45 92.051 25.546 91.927 26.588 C 90.658 37.369 87.976 45.704 83.75 52.037 C 82.417 54.032 81.633 55.035 80.534 56.14 C 79.068 57.611 77.623 58.636 75.668 59.595 C 74.769 60.041 74.781 60.041 76.297 59.691 C 78.071 59.282 79.625 58.833 83.711 57.555 C 88.26 56.134 89.853 55.727 92.157 55.387 C 93.69 55.163 94.61 55.102 96.339 55.109 C 98.104 55.109 99.292 55.203 100.67 55.443 C 101.483 55.581 102.955 55.916 102.921 55.95 C 102.909 55.961 102.169 56.156 101.266 56.385 C 96.21 57.655 93.717 58.531 87.919 61.083 C 84.291 62.678 82.468 63.375 79.67 64.245 C 77.612 64.88 76.231 65.17 74.179 65.399 C 73.316 65.493 69.591 65.493 68.688 65.399 C 65.198 65.018 62.506 64.288 60.019 63.046 C 57.6 61.837 55.566 60.086 54.501 58.308 C 54.072 57.589 54.244 57.79 54.306 57.851 C 54.373 57.917 55.661 58.336 56.63 58.609 C 60.249 59.63 64.051 59.941 67.49 59.5 C 71.797 58.954 75.567 57.081 78.175 54.189 C 79.068 53.202 79.72 52.282 80.807 50.481 C 83.534 45.977 85.562 40.223 86.995 32.943 C 87.463 30.563 88.042 26.99 87.965 26.923 C 87.865 26.833 83.632 27.281 81.593 27.598 C 77.401 28.25 73.7 29.141 70.277 30.318 C 69.653 30.535 69.119 30.736 69.09 30.764 C 69.05 30.803 69.067 31.015 69.129 31.393 C 69.324 32.626 69.391 33.417 69.424 34.905 C 69.452 36.355 69.396 37.733 69.278 38.379 C 69.234 38.641 69.251 38.68 68.967 37.654 C 67.143 31.077 63.566 24.687 57.334 16.895 C 56.307 15.612 54.229 13.099 54.194 13.099 C 54.172 13.099 52.466 15.144 51.597 16.22 C 44.952 24.432 41.206 31.031 39.366 37.76 C 39.26 38.156 39.16 38.49 39.149 38.502 C 39.055 38.596 38.938 36.941 38.938 35.48 C 38.938 34.013 38.988 33.29 39.182 31.911 C 39.25 31.45 39.304 30.998 39.304 30.908 L 39.31 30.743 L 38.229 30.362 C 34.076 28.913 29.093 27.816 23.981 27.23 C 22.18 27.019 20.479 26.872 20.425 26.923 C 20.374 26.969 20.542 28.137 20.92 30.373 C 22.492 39.688 24.856 46.456 28.385 51.791 C 29.294 53.158 29.823 53.82 30.804 54.796 C 33.497 57.482 36.942 59.031 41.401 59.573 C 42.416 59.696 45.409 59.713 46.474 59.601 C 48.939 59.344 51.195 58.854 53.547 58.057 C 53.871 57.951 54.139 57.867 54.143 57.877 C 54.172 57.906 53.72 58.592 53.37 59.055 C 52.901 59.673 51.915 60.683 51.239 61.223 C 48.659 63.307 44.924 64.74 40.676 65.276 C 39.404 65.432 38.308 65.499 36.803 65.499 C 33.942 65.499 31.713 65.158 28.886 64.3 C 25.959 63.408 23.831 62.582 19.494 60.66 C 14.811 58.586 11.605 57.482 6.894 56.324 C 5.273 55.926 5.38 55.961 5.585 55.9 C 6.522 55.627 8.138 55.336 9.459 55.203 C 10.603 55.085 13.323 55.074 14.448 55.174 C 17.514 55.454 19.655 55.961 25.319 57.75 C 27.979 58.592 29.449 59.027 30.782 59.368 C 32.109 59.707 33.251 59.951 33.29 59.914 C 33.306 59.901 33.033 59.753 32.688 59.584 C 29.924 58.247 27.866 56.501 25.871 53.815 C 24.489 51.958 23.39 50.164 22.254 47.911 C 19.075 41.628 17.146 34.12 16.259 24.56 C 16.199 23.885 16.148 23.255 16.148 23.155 L 16.148 22.977 L 17.794 22.937 C 19.61 22.893 23.329 22.977 25.347 23.105 C 30.586 23.445 35.565 24.265 39.969 25.513 C 40.381 25.63 40.698 25.691 40.727 25.664 C 40.749 25.636 40.849 25.384 40.943 25.101 C 41.418 23.723 42.693 20.992 43.743 19.119 C 46.139 14.822 49.267 10.546 53.313 6.03 C 53.788 5.501 54.194 5.082 54.223 5.099 C 54.25 5.115 54.657 5.563 55.131 6.092 Z" stroke="none" style="fill: rgb(95, 147, 187);"/>
  </g>
</svg>