<?xml version="1.0" encoding="utf-8"?>
<svg width="261" height="80" viewBox="0 0 261 80" fill="none" xmlns="http://www.w3.org/2000/svg">
  <path d="M 128.433 28.973 Q 128.433 30.6 128.051 32.364 Q 127.668 34.127 126.977 35.802 Q 126.287 37.477 125.316 38.967 Q 124.345 40.458 123.156 41.551 L 121.42 40.608 Q 121.816 39.897 122.144 39.008 Q 122.472 38.12 122.746 37.135 Q 123.019 36.151 123.224 35.112 Q 123.429 34.073 123.573 33.041 Q 123.717 32.008 123.785 31.038 Q 123.853 30.067 123.853 29.219 Q 123.853 28.741 123.826 28.18 Q 123.799 27.62 123.71 27.059 Q 123.621 26.499 123.443 25.986 Q 123.265 25.473 122.958 25.07 Q 122.65 24.667 122.192 24.427 Q 121.734 24.188 121.092 24.188 Q 120.463 24.188 120.018 24.523 Q 119.574 24.858 119.26 25.391 Q 118.945 25.924 118.761 26.594 Q 118.576 27.264 118.48 27.941 Q 118.385 28.618 118.35 29.233 Q 118.316 29.848 118.316 30.272 L 118.316 38.188 L 113.709 38.188 L 113.709 30.833 Q 113.709 30.354 113.722 29.677 Q 113.736 29 113.688 28.262 Q 113.64 27.524 113.511 26.792 Q 113.381 26.061 113.1 25.487 Q 112.82 24.913 112.342 24.55 Q 111.863 24.188 111.138 24.188 Q 110.523 24.188 110.106 24.53 Q 109.689 24.872 109.409 25.412 Q 109.129 25.952 108.971 26.628 Q 108.814 27.305 108.739 27.982 Q 108.664 28.659 108.65 29.267 Q 108.636 29.875 108.636 30.272 L 108.636 38.188 L 104.002 38.188 L 104.002 22.397 L 105.779 22.397 L 107.474 26.075 Q 108.049 24.161 109.286 23.087 Q 110.523 22.014 112.574 22.014 Q 114.42 22.014 115.636 22.78 Q 116.853 23.545 117.551 25.268 Q 117.947 24.516 118.432 23.915 Q 118.918 23.313 119.512 22.889 Q 120.107 22.465 120.832 22.24 Q 121.556 22.014 122.431 22.014 Q 124.045 22.014 125.186 22.541 Q 126.328 23.067 127.053 23.997 Q 127.777 24.926 128.105 26.205 Q 128.433 27.483 128.433 28.973 Z M 147.409 38.188 L 142.788 38.188 L 142.788 36.301 Q 141.967 37.422 140.812 37.962 Q 139.657 38.502 138.276 38.502 Q 136.471 38.502 135.049 37.86 Q 133.627 37.217 132.643 36.103 Q 131.659 34.989 131.139 33.485 Q 130.62 31.981 130.62 30.258 Q 130.62 28.536 131.139 27.032 Q 131.659 25.528 132.643 24.414 Q 133.627 23.299 135.049 22.657 Q 136.471 22.014 138.276 22.014 Q 139.192 22.014 140.019 22.288 Q 140.846 22.561 141.537 23.06 Q 142.227 23.559 142.753 24.263 Q 143.28 24.967 143.58 25.829 L 145.631 22.397 L 147.409 22.397 Z M 142.76 30.258 Q 142.76 29.643 142.699 28.959 Q 142.637 28.276 142.487 27.606 Q 142.336 26.936 142.07 26.328 Q 141.803 25.719 141.386 25.248 Q 140.969 24.776 140.381 24.502 Q 139.793 24.229 139.014 24.229 Q 138.235 24.229 137.661 24.509 Q 137.086 24.79 136.676 25.261 Q 136.266 25.733 135.999 26.348 Q 135.733 26.963 135.582 27.633 Q 135.432 28.303 135.371 28.98 Q 135.309 29.657 135.309 30.258 Q 135.309 30.86 135.371 31.543 Q 135.432 32.227 135.582 32.897 Q 135.733 33.567 135.999 34.182 Q 136.266 34.797 136.676 35.269 Q 137.086 35.741 137.661 36.021 Q 138.235 36.301 139.014 36.301 Q 139.725 36.301 140.279 36.007 Q 140.832 35.713 141.249 35.221 Q 141.666 34.729 141.954 34.1 Q 142.241 33.471 142.418 32.801 Q 142.596 32.131 142.678 31.468 Q 142.76 30.805 142.76 30.258 Z M 164.854 33.143 Q 164.854 34.182 164.553 34.989 Q 164.252 35.795 163.733 36.39 Q 163.213 36.985 162.502 37.388 Q 161.791 37.792 160.978 38.038 Q 160.164 38.284 159.276 38.393 Q 158.387 38.502 157.512 38.502 Q 156.336 38.502 155.434 38.352 Q 154.532 38.202 153.711 37.867 Q 152.891 37.532 152.077 36.999 Q 151.264 36.465 150.266 35.7 L 152.959 33.499 Q 153.328 34.196 153.937 34.763 Q 154.545 35.331 155.201 35.741 Q 155.858 36.151 156.473 36.37 Q 157.088 36.588 157.471 36.588 Q 157.785 36.588 158.182 36.568 Q 158.578 36.547 158.989 36.486 Q 159.399 36.424 159.795 36.301 Q 160.192 36.178 160.499 35.966 Q 160.807 35.754 160.992 35.433 Q 161.176 35.112 161.176 34.661 Q 161.176 34.196 160.937 33.847 Q 160.698 33.499 160.315 33.239 Q 159.932 32.979 159.44 32.801 Q 158.948 32.624 158.449 32.487 Q 157.95 32.35 157.485 32.248 Q 157.02 32.145 156.678 32.049 Q 156.049 31.872 155.352 31.687 Q 154.655 31.502 153.971 31.263 Q 153.287 31.024 152.665 30.696 Q 152.043 30.368 151.572 29.91 Q 151.1 29.452 150.82 28.83 Q 150.539 28.208 150.539 27.374 Q 150.539 25.842 151.148 24.81 Q 151.756 23.778 152.754 23.156 Q 153.752 22.534 155.024 22.274 Q 156.295 22.014 157.608 22.014 Q 158.51 22.014 159.508 22.199 Q 160.506 22.383 161.45 22.746 Q 162.393 23.108 163.213 23.627 Q 164.033 24.147 164.58 24.817 L 161.887 27.032 Q 161.586 26.211 161.101 25.624 Q 160.616 25.036 160.048 24.66 Q 159.481 24.284 158.886 24.106 Q 158.291 23.928 157.785 23.928 Q 157.293 23.928 156.678 23.969 Q 156.063 24.01 155.523 24.202 Q 154.983 24.393 154.607 24.783 Q 154.231 25.172 154.231 25.856 Q 154.231 26.348 154.456 26.697 Q 154.682 27.045 155.051 27.298 Q 155.42 27.551 155.892 27.722 Q 156.364 27.893 156.856 28.023 Q 157.348 28.153 157.813 28.249 Q 158.278 28.344 158.647 28.454 Q 159.276 28.631 159.98 28.816 Q 160.684 29 161.367 29.24 Q 162.051 29.479 162.687 29.8 Q 163.323 30.122 163.801 30.586 Q 164.28 31.051 164.567 31.673 Q 164.854 32.295 164.854 33.143 Z M 181.356 33.143 Q 181.356 34.182 181.056 34.989 Q 180.755 35.795 180.235 36.39 Q 179.716 36.985 179.005 37.388 Q 178.294 37.792 177.48 38.038 Q 176.667 38.284 175.778 38.393 Q 174.89 38.502 174.015 38.502 Q 172.839 38.502 171.936 38.352 Q 171.034 38.202 170.214 37.867 Q 169.393 37.532 168.58 36.999 Q 167.766 36.465 166.768 35.7 L 169.462 33.499 Q 169.831 34.196 170.439 34.763 Q 171.048 35.331 171.704 35.741 Q 172.36 36.151 172.975 36.37 Q 173.591 36.588 173.973 36.588 Q 174.288 36.588 174.684 36.568 Q 175.081 36.547 175.491 36.486 Q 175.901 36.424 176.298 36.301 Q 176.694 36.178 177.002 35.966 Q 177.309 35.754 177.494 35.433 Q 177.679 35.112 177.679 34.661 Q 177.679 34.196 177.439 33.847 Q 177.2 33.499 176.817 33.239 Q 176.434 32.979 175.942 32.801 Q 175.45 32.624 174.951 32.487 Q 174.452 32.35 173.987 32.248 Q 173.522 32.145 173.181 32.049 Q 172.552 31.872 171.854 31.687 Q 171.157 31.502 170.473 31.263 Q 169.79 31.024 169.168 30.696 Q 168.546 30.368 168.074 29.91 Q 167.602 29.452 167.322 28.83 Q 167.042 28.208 167.042 27.374 Q 167.042 25.842 167.65 24.81 Q 168.259 23.778 169.257 23.156 Q 170.255 22.534 171.526 22.274 Q 172.798 22.014 174.11 22.014 Q 175.013 22.014 176.011 22.199 Q 177.009 22.383 177.952 22.746 Q 178.895 23.108 179.716 23.627 Q 180.536 24.147 181.083 24.817 L 178.39 27.032 Q 178.089 26.211 177.603 25.624 Q 177.118 25.036 176.551 24.66 Q 175.983 24.284 175.389 24.106 Q 174.794 23.928 174.288 23.928 Q 173.796 23.928 173.181 23.969 Q 172.565 24.01 172.025 24.202 Q 171.485 24.393 171.109 24.783 Q 170.733 25.172 170.733 25.856 Q 170.733 26.348 170.959 26.697 Q 171.184 27.045 171.554 27.298 Q 171.923 27.551 172.394 27.722 Q 172.866 27.893 173.358 28.023 Q 173.85 28.153 174.315 28.249 Q 174.78 28.344 175.149 28.454 Q 175.778 28.631 176.482 28.816 Q 177.186 29 177.87 29.24 Q 178.554 29.479 179.189 29.8 Q 179.825 30.122 180.304 30.586 Q 180.782 31.051 181.069 31.673 Q 181.356 32.295 181.356 33.143 Z M 200.167 38.188 L 195.546 38.188 L 195.546 36.301 Q 194.726 37.422 193.57 37.962 Q 192.415 38.502 191.034 38.502 Q 189.23 38.502 187.808 37.86 Q 186.386 37.217 185.401 36.103 Q 184.417 34.989 183.898 33.485 Q 183.378 31.981 183.378 30.258 Q 183.378 28.536 183.898 27.032 Q 184.417 25.528 185.401 24.414 Q 186.386 23.299 187.808 22.657 Q 189.23 22.014 191.034 22.014 Q 191.95 22.014 192.777 22.288 Q 193.605 22.561 194.295 23.06 Q 194.985 23.559 195.512 24.263 Q 196.038 24.967 196.339 25.829 L 198.39 22.397 L 200.167 22.397 Z M 195.519 30.258 Q 195.519 29.643 195.457 28.959 Q 195.396 28.276 195.245 27.606 Q 195.095 26.936 194.828 26.328 Q 194.562 25.719 194.145 25.248 Q 193.728 24.776 193.14 24.502 Q 192.552 24.229 191.773 24.229 Q 190.993 24.229 190.419 24.509 Q 189.845 24.79 189.435 25.261 Q 189.024 25.733 188.758 26.348 Q 188.491 26.963 188.341 27.633 Q 188.19 28.303 188.129 28.98 Q 188.067 29.657 188.067 30.258 Q 188.067 30.86 188.129 31.543 Q 188.19 32.227 188.341 32.897 Q 188.491 33.567 188.758 34.182 Q 189.024 34.797 189.435 35.269 Q 189.845 35.741 190.419 36.021 Q 190.993 36.301 191.773 36.301 Q 192.483 36.301 193.037 36.007 Q 193.591 35.713 194.008 35.221 Q 194.425 34.729 194.712 34.1 Q 194.999 33.471 195.177 32.801 Q 195.355 32.131 195.437 31.468 Q 195.519 30.805 195.519 30.258 Z M 219.923 36.288 Q 219.923 38.174 219.362 39.842 Q 218.802 41.51 217.735 42.761 Q 216.669 44.012 215.117 44.744 Q 213.565 45.475 211.583 45.475 Q 210.489 45.475 209.375 45.229 Q 208.261 44.983 207.269 44.47 Q 206.278 43.958 205.492 43.171 Q 204.706 42.385 204.255 41.319 L 206.251 40.567 Q 206.511 41.237 206.928 41.797 Q 207.345 42.358 207.892 42.761 Q 208.438 43.165 209.095 43.39 Q 209.751 43.616 210.476 43.616 Q 211.843 43.616 212.766 43.055 Q 213.688 42.495 214.249 41.592 Q 214.809 40.69 215.056 39.548 Q 215.302 38.407 215.302 37.231 L 215.302 36.301 Q 214.481 37.422 213.326 37.962 Q 212.171 38.502 210.79 38.502 Q 208.985 38.502 207.563 37.86 Q 206.142 37.217 205.157 36.103 Q 204.173 34.989 203.653 33.485 Q 203.134 31.981 203.134 30.258 Q 203.134 28.536 203.653 27.032 Q 204.173 25.528 205.157 24.414 Q 206.142 23.299 207.563 22.657 Q 208.985 22.014 210.79 22.014 Q 211.706 22.014 212.533 22.288 Q 213.36 22.561 214.051 23.06 Q 214.741 23.559 215.268 24.263 Q 215.794 24.967 216.095 25.829 L 218.145 22.397 L 219.923 22.397 Z M 215.274 30.258 Q 215.274 29.643 215.213 28.959 Q 215.151 28.276 215.001 27.606 Q 214.851 26.936 214.584 26.328 Q 214.317 25.719 213.9 25.248 Q 213.483 24.776 212.895 24.502 Q 212.308 24.229 211.528 24.229 Q 210.749 24.229 210.175 24.509 Q 209.601 24.79 209.19 25.261 Q 208.78 25.733 208.514 26.348 Q 208.247 26.963 208.097 27.633 Q 207.946 28.303 207.885 28.98 Q 207.823 29.657 207.823 30.258 Q 207.823 30.86 207.885 31.543 Q 207.946 32.227 208.097 32.897 Q 208.247 33.567 208.514 34.182 Q 208.78 34.797 209.19 35.269 Q 209.601 35.741 210.175 36.021 Q 210.749 36.301 211.528 36.301 Q 212.239 36.301 212.793 36.007 Q 213.347 35.713 213.764 35.221 Q 214.181 34.729 214.468 34.1 Q 214.755 33.471 214.933 32.801 Q 215.11 32.131 215.192 31.468 Q 215.274 30.805 215.274 30.258 Z M 227.579 30.696 Q 228.427 30.887 229.274 30.997 Q 230.122 31.106 230.983 31.106 Q 231.886 31.106 232.658 30.935 Q 233.43 30.764 233.998 30.361 Q 234.565 29.958 234.893 29.288 Q 235.221 28.618 235.221 27.62 Q 235.221 26.813 235.003 26.143 Q 234.784 25.473 234.353 24.995 Q 233.923 24.516 233.294 24.25 Q 232.665 23.983 231.831 23.983 Q 231.052 23.983 230.429 24.27 Q 229.807 24.557 229.336 25.042 Q 228.864 25.528 228.529 26.17 Q 228.194 26.813 227.975 27.51 Q 227.757 28.208 227.661 28.918 Q 227.565 29.629 227.565 30.258 Q 227.565 30.368 227.565 30.477 Q 227.565 30.586 227.579 30.696 Z M 238.968 27.579 Q 238.968 28.549 238.653 29.308 Q 238.339 30.067 237.799 30.641 Q 237.259 31.215 236.548 31.612 Q 235.837 32.008 235.03 32.261 Q 234.223 32.514 233.369 32.624 Q 232.514 32.733 231.708 32.733 Q 230.682 32.733 229.684 32.589 Q 228.686 32.446 227.716 32.131 Q 227.866 33.034 228.194 33.847 Q 228.522 34.661 229.069 35.269 Q 229.616 35.877 230.416 36.233 Q 231.216 36.588 232.309 36.588 Q 233.034 36.588 233.69 36.37 Q 234.346 36.151 234.893 35.754 Q 235.44 35.358 235.857 34.811 Q 236.274 34.264 236.534 33.594 L 238.53 34.333 Q 238.079 35.413 237.293 36.199 Q 236.507 36.985 235.515 37.498 Q 234.524 38.01 233.41 38.256 Q 232.296 38.502 231.202 38.502 Q 229.397 38.502 227.866 37.894 Q 226.335 37.286 225.227 36.192 Q 224.12 35.098 223.491 33.581 Q 222.862 32.063 222.862 30.258 Q 222.862 28.454 223.491 26.936 Q 224.12 25.418 225.227 24.325 Q 226.335 23.231 227.866 22.623 Q 229.397 22.014 231.202 22.014 Q 232.077 22.014 232.993 22.137 Q 233.909 22.26 234.77 22.527 Q 235.632 22.793 236.397 23.217 Q 237.163 23.641 237.73 24.263 Q 238.298 24.885 238.633 25.706 Q 238.968 26.526 238.968 27.579 Z" style="fill: rgb(255, 255, 255);"/>
  <path d="M 128.733 46.522 Q 128.733 48.149 128.351 49.913 Q 127.968 51.676 127.277 53.351 Q 126.587 55.026 125.616 56.516 Q 124.645 58.007 123.456 59.1 L 121.72 58.157 Q 122.116 57.446 122.444 56.557 Q 122.772 55.669 123.046 54.684 Q 123.319 53.7 123.524 52.661 Q 123.729 51.622 123.873 50.59 Q 124.017 49.557 124.085 48.587 Q 124.153 47.616 124.153 46.768 Q 124.153 46.29 124.126 45.729 Q 124.099 45.169 124.01 44.608 Q 123.921 44.048 123.743 43.535 Q 123.565 43.022 123.258 42.619 Q 122.95 42.216 122.492 41.976 Q 122.034 41.737 121.392 41.737 Q 120.763 41.737 120.318 42.072 Q 119.874 42.407 119.56 42.94 Q 119.245 43.473 119.061 44.143 Q 118.876 44.813 118.78 45.49 Q 118.685 46.167 118.65 46.782 Q 118.616 47.397 118.616 47.821 L 118.616 55.737 L 114.009 55.737 L 114.009 48.382 Q 114.009 47.903 114.022 47.226 Q 114.036 46.549 113.988 45.811 Q 113.94 45.073 113.811 44.341 Q 113.681 43.61 113.4 43.036 Q 113.12 42.462 112.642 42.099 Q 112.163 41.737 111.438 41.737 Q 110.823 41.737 110.406 42.079 Q 109.989 42.421 109.709 42.961 Q 109.429 43.501 109.271 44.177 Q 109.114 44.854 109.039 45.531 Q 108.964 46.208 108.95 46.816 Q 108.937 47.424 108.937 47.821 L 108.937 55.737 L 104.302 55.737 L 104.302 39.946 L 106.079 39.946 L 107.774 43.624 Q 108.349 41.71 109.586 40.636 Q 110.823 39.563 112.874 39.563 Q 114.72 39.563 115.937 40.329 Q 117.153 41.094 117.851 42.817 Q 118.247 42.065 118.732 41.464 Q 119.218 40.862 119.812 40.438 Q 120.407 40.014 121.132 39.789 Q 121.856 39.563 122.731 39.563 Q 124.345 39.563 125.486 40.09 Q 126.628 40.616 127.353 41.546 Q 128.077 42.475 128.405 43.754 Q 128.733 45.032 128.733 46.522 Z M 147.709 55.737 L 143.088 55.737 L 143.088 53.85 Q 142.267 54.971 141.112 55.511 Q 139.957 56.051 138.576 56.051 Q 136.771 56.051 135.349 55.409 Q 133.927 54.766 132.943 53.652 Q 131.959 52.538 131.439 51.034 Q 130.92 49.53 130.92 47.807 Q 130.92 46.085 131.439 44.581 Q 131.959 43.077 132.943 41.963 Q 133.927 40.848 135.349 40.206 Q 136.771 39.563 138.576 39.563 Q 139.492 39.563 140.319 39.837 Q 141.146 40.11 141.837 40.609 Q 142.527 41.108 143.053 41.812 Q 143.58 42.516 143.88 43.378 L 145.931 39.946 L 147.709 39.946 Z M 143.06 47.807 Q 143.06 47.192 142.999 46.508 Q 142.937 45.825 142.787 45.155 Q 142.636 44.485 142.37 43.877 Q 142.103 43.268 141.686 42.797 Q 141.269 42.325 140.681 42.051 Q 140.093 41.778 139.314 41.778 Q 138.535 41.778 137.961 42.058 Q 137.386 42.339 136.976 42.81 Q 136.566 43.282 136.299 43.897 Q 136.033 44.512 135.882 45.182 Q 135.732 45.852 135.671 46.529 Q 135.609 47.206 135.609 47.807 Q 135.609 48.409 135.671 49.092 Q 135.732 49.776 135.882 50.446 Q 136.033 51.116 136.299 51.731 Q 136.566 52.346 136.976 52.818 Q 137.386 53.29 137.961 53.57 Q 138.535 53.85 139.314 53.85 Q 140.025 53.85 140.579 53.556 Q 141.132 53.262 141.549 52.77 Q 141.966 52.278 142.254 51.649 Q 142.541 51.02 142.718 50.35 Q 142.896 49.68 142.978 49.017 Q 143.06 48.354 143.06 47.807 Z M 165.154 50.692 Q 165.154 51.731 164.853 52.538 Q 164.552 53.344 164.033 53.939 Q 163.513 54.534 162.802 54.937 Q 162.091 55.341 161.278 55.587 Q 160.464 55.833 159.576 55.942 Q 158.687 56.051 157.812 56.051 Q 156.636 56.051 155.734 55.901 Q 154.832 55.751 154.011 55.416 Q 153.191 55.081 152.377 54.548 Q 151.564 54.014 150.566 53.249 L 153.259 51.048 Q 153.628 51.745 154.237 52.312 Q 154.845 52.88 155.501 53.29 Q 156.158 53.7 156.773 53.919 Q 157.388 54.137 157.771 54.137 Q 158.085 54.137 158.482 54.117 Q 158.878 54.096 159.289 54.035 Q 159.699 53.973 160.095 53.85 Q 160.492 53.727 160.799 53.515 Q 161.107 53.303 161.292 52.982 Q 161.476 52.661 161.476 52.21 Q 161.476 51.745 161.237 51.396 Q 160.998 51.048 160.615 50.788 Q 160.232 50.528 159.74 50.35 Q 159.248 50.173 158.749 50.036 Q 158.25 49.899 157.785 49.797 Q 157.32 49.694 156.978 49.598 Q 156.349 49.421 155.652 49.236 Q 154.955 49.051 154.271 48.812 Q 153.587 48.573 152.965 48.245 Q 152.343 47.917 151.872 47.459 Q 151.4 47.001 151.12 46.379 Q 150.839 45.757 150.839 44.923 Q 150.839 43.391 151.448 42.359 Q 152.056 41.327 153.054 40.705 Q 154.052 40.083 155.324 39.823 Q 156.595 39.563 157.908 39.563 Q 158.81 39.563 159.808 39.748 Q 160.806 39.932 161.75 40.295 Q 162.693 40.657 163.513 41.176 Q 164.333 41.696 164.88 42.366 L 162.187 44.581 Q 161.886 43.76 161.401 43.173 Q 160.916 42.585 160.348 42.209 Q 159.781 41.833 159.186 41.655 Q 158.591 41.477 158.085 41.477 Q 157.593 41.477 156.978 41.518 Q 156.363 41.559 155.823 41.751 Q 155.283 41.942 154.907 42.332 Q 154.531 42.721 154.531 43.405 Q 154.531 43.897 154.756 44.246 Q 154.982 44.594 155.351 44.847 Q 155.72 45.1 156.192 45.271 Q 156.664 45.442 157.156 45.572 Q 157.648 45.702 158.113 45.798 Q 158.578 45.893 158.947 46.003 Q 159.576 46.18 160.28 46.365 Q 160.984 46.549 161.667 46.789 Q 162.351 47.028 162.987 47.349 Q 163.623 47.671 164.101 48.135 Q 164.58 48.6 164.867 49.222 Q 165.154 49.844 165.154 50.692 Z M 181.656 50.692 Q 181.656 51.731 181.356 52.538 Q 181.055 53.344 180.535 53.939 Q 180.016 54.534 179.305 54.937 Q 178.594 55.341 177.78 55.587 Q 176.967 55.833 176.078 55.942 Q 175.19 56.051 174.315 56.051 Q 173.139 56.051 172.236 55.901 Q 171.334 55.751 170.514 55.416 Q 169.693 55.081 168.88 54.548 Q 168.066 54.014 167.068 53.249 L 169.762 51.048 Q 170.131 51.745 170.739 52.312 Q 171.348 52.88 172.004 53.29 Q 172.66 53.7 173.275 53.919 Q 173.891 54.137 174.273 54.137 Q 174.588 54.137 174.984 54.117 Q 175.381 54.096 175.791 54.035 Q 176.201 53.973 176.598 53.85 Q 176.994 53.727 177.302 53.515 Q 177.609 53.303 177.794 52.982 Q 177.979 52.661 177.979 52.21 Q 177.979 51.745 177.739 51.396 Q 177.5 51.048 177.117 50.788 Q 176.734 50.528 176.242 50.35 Q 175.75 50.173 175.251 50.036 Q 174.752 49.899 174.287 49.797 Q 173.822 49.694 173.481 49.598 Q 172.852 49.421 172.154 49.236 Q 171.457 49.051 170.773 48.812 Q 170.09 48.573 169.468 48.245 Q 168.846 47.917 168.374 47.459 Q 167.902 47.001 167.622 46.379 Q 167.342 45.757 167.342 44.923 Q 167.342 43.391 167.95 42.359 Q 168.559 41.327 169.557 40.705 Q 170.555 40.083 171.826 39.823 Q 173.098 39.563 174.41 39.563 Q 175.313 39.563 176.311 39.748 Q 177.309 39.932 178.252 40.295 Q 179.195 40.657 180.016 41.176 Q 180.836 41.696 181.383 42.366 L 178.69 44.581 Q 178.389 43.76 177.903 43.173 Q 177.418 42.585 176.851 42.209 Q 176.283 41.833 175.689 41.655 Q 175.094 41.477 174.588 41.477 Q 174.096 41.477 173.481 41.518 Q 172.865 41.559 172.325 41.751 Q 171.785 41.942 171.409 42.332 Q 171.033 42.721 171.033 43.405 Q 171.033 43.897 171.259 44.246 Q 171.484 44.594 171.854 44.847 Q 172.223 45.1 172.694 45.271 Q 173.166 45.442 173.658 45.572 Q 174.15 45.702 174.615 45.798 Q 175.08 45.893 175.449 46.003 Q 176.078 46.18 176.782 46.365 Q 177.486 46.549 178.17 46.789 Q 178.854 47.028 179.489 47.349 Q 180.125 47.671 180.604 48.135 Q 181.082 48.6 181.369 49.222 Q 181.656 49.844 181.656 50.692 Z M 200.467 55.737 L 195.846 55.737 L 195.846 53.85 Q 195.026 54.971 193.87 55.511 Q 192.715 56.051 191.334 56.051 Q 189.53 56.051 188.108 55.409 Q 186.686 54.766 185.701 53.652 Q 184.717 52.538 184.198 51.034 Q 183.678 49.53 183.678 47.807 Q 183.678 46.085 184.198 44.581 Q 184.717 43.077 185.701 41.963 Q 186.686 40.848 188.108 40.206 Q 189.53 39.563 191.334 39.563 Q 192.25 39.563 193.077 39.837 Q 193.905 40.11 194.595 40.609 Q 195.285 41.108 195.812 41.812 Q 196.338 42.516 196.639 43.378 L 198.69 39.946 L 200.467 39.946 Z M 195.819 47.807 Q 195.819 47.192 195.757 46.508 Q 195.696 45.825 195.545 45.155 Q 195.395 44.485 195.128 43.877 Q 194.862 43.268 194.445 42.797 Q 194.028 42.325 193.44 42.051 Q 192.852 41.778 192.073 41.778 Q 191.293 41.778 190.719 42.058 Q 190.145 42.339 189.735 42.81 Q 189.324 43.282 189.058 43.897 Q 188.791 44.512 188.641 45.182 Q 188.49 45.852 188.429 46.529 Q 188.367 47.206 188.367 47.807 Q 188.367 48.409 188.429 49.092 Q 188.49 49.776 188.641 50.446 Q 188.791 51.116 189.058 51.731 Q 189.324 52.346 189.735 52.818 Q 190.145 53.29 190.719 53.57 Q 191.293 53.85 192.073 53.85 Q 192.783 53.85 193.337 53.556 Q 193.891 53.262 194.308 52.77 Q 194.725 52.278 195.012 51.649 Q 195.299 51.02 195.477 50.35 Q 195.655 49.68 195.737 49.017 Q 195.819 48.354 195.819 47.807 Z M 220.223 53.837 Q 220.223 55.723 219.662 57.391 Q 219.102 59.059 218.035 60.31 Q 216.969 61.561 215.417 62.293 Q 213.865 63.024 211.883 63.024 Q 210.789 63.024 209.675 62.778 Q 208.561 62.532 207.569 62.019 Q 206.578 61.507 205.792 60.72 Q 205.006 59.934 204.555 58.868 L 206.551 58.116 Q 206.811 58.786 207.228 59.346 Q 207.645 59.907 208.192 60.31 Q 208.738 60.714 209.395 60.939 Q 210.051 61.165 210.776 61.165 Q 212.143 61.165 213.066 60.604 Q 213.988 60.044 214.549 59.141 Q 215.109 58.239 215.356 57.097 Q 215.602 55.956 215.602 54.78 L 215.602 53.85 Q 214.781 54.971 213.626 55.511 Q 212.471 56.051 211.09 56.051 Q 209.285 56.051 207.863 55.409 Q 206.442 54.766 205.457 53.652 Q 204.473 52.538 203.953 51.034 Q 203.434 49.53 203.434 47.807 Q 203.434 46.085 203.953 44.581 Q 204.473 43.077 205.457 41.963 Q 206.442 40.848 207.863 40.206 Q 209.285 39.563 211.09 39.563 Q 212.006 39.563 212.833 39.837 Q 213.66 40.11 214.351 40.609 Q 215.041 41.108 215.568 41.812 Q 216.094 42.516 216.395 43.378 L 218.445 39.946 L 220.223 39.946 Z M 215.574 47.807 Q 215.574 47.192 215.513 46.508 Q 215.451 45.825 215.301 45.155 Q 215.151 44.485 214.884 43.877 Q 214.617 43.268 214.2 42.797 Q 213.783 42.325 213.195 42.051 Q 212.608 41.778 211.828 41.778 Q 211.049 41.778 210.475 42.058 Q 209.901 42.339 209.49 42.81 Q 209.08 43.282 208.814 43.897 Q 208.547 44.512 208.397 45.182 Q 208.246 45.852 208.185 46.529 Q 208.123 47.206 208.123 47.807 Q 208.123 48.409 208.185 49.092 Q 208.246 49.776 208.397 50.446 Q 208.547 51.116 208.814 51.731 Q 209.08 52.346 209.49 52.818 Q 209.901 53.29 210.475 53.57 Q 211.049 53.85 211.828 53.85 Q 212.539 53.85 213.093 53.556 Q 213.647 53.262 214.064 52.77 Q 214.481 52.278 214.768 51.649 Q 215.055 51.02 215.233 50.35 Q 215.41 49.68 215.492 49.017 Q 215.574 48.354 215.574 47.807 Z M 227.879 48.245 Q 228.727 48.436 229.574 48.546 Q 230.422 48.655 231.283 48.655 Q 232.186 48.655 232.958 48.484 Q 233.73 48.313 234.298 47.91 Q 234.865 47.507 235.193 46.837 Q 235.521 46.167 235.521 45.169 Q 235.521 44.362 235.303 43.692 Q 235.084 43.022 234.653 42.544 Q 234.223 42.065 233.594 41.799 Q 232.965 41.532 232.131 41.532 Q 231.352 41.532 230.729 41.819 Q 230.107 42.106 229.636 42.591 Q 229.164 43.077 228.829 43.719 Q 228.494 44.362 228.275 45.059 Q 228.057 45.757 227.961 46.467 Q 227.865 47.178 227.865 47.807 Q 227.865 47.917 227.865 48.026 Q 227.865 48.135 227.879 48.245 Z M 239.268 45.128 Q 239.268 46.098 238.953 46.857 Q 238.639 47.616 238.099 48.19 Q 237.559 48.764 236.848 49.161 Q 236.137 49.557 235.33 49.81 Q 234.523 50.063 233.669 50.173 Q 232.814 50.282 232.008 50.282 Q 230.982 50.282 229.984 50.138 Q 228.986 49.995 228.016 49.68 Q 228.166 50.583 228.494 51.396 Q 228.822 52.21 229.369 52.818 Q 229.916 53.426 230.716 53.782 Q 231.516 54.137 232.609 54.137 Q 233.334 54.137 233.99 53.919 Q 234.646 53.7 235.193 53.303 Q 235.74 52.907 236.157 52.36 Q 236.574 51.813 236.834 51.143 L 238.83 51.882 Q 238.379 52.962 237.593 53.748 Q 236.807 54.534 235.815 55.047 Q 234.824 55.559 233.71 55.805 Q 232.596 56.051 231.502 56.051 Q 229.697 56.051 228.166 55.443 Q 226.635 54.835 225.527 53.741 Q 224.42 52.647 223.791 51.13 Q 223.162 49.612 223.162 47.807 Q 223.162 46.003 223.791 44.485 Q 224.42 42.967 225.527 41.874 Q 226.635 40.78 228.166 40.172 Q 229.697 39.563 231.502 39.563 Q 232.377 39.563 233.293 39.686 Q 234.209 39.809 235.07 40.076 Q 235.932 40.342 236.697 40.766 Q 237.463 41.19 238.03 41.812 Q 238.598 42.434 238.933 43.255 Q 239.268 44.075 239.268 45.128 Z M 255.741 50.692 Q 255.741 51.731 255.441 52.538 Q 255.14 53.344 254.62 53.939 Q 254.101 54.534 253.39 54.937 Q 252.679 55.341 251.865 55.587 Q 251.052 55.833 250.163 55.942 Q 249.275 56.051 248.4 56.051 Q 247.224 56.051 246.322 55.901 Q 245.419 55.751 244.599 55.416 Q 243.779 55.081 242.965 54.548 Q 242.152 54.014 241.154 53.249 L 243.847 51.048 Q 244.216 51.745 244.824 52.312 Q 245.433 52.88 246.089 53.29 Q 246.745 53.7 247.361 53.919 Q 247.976 54.137 248.359 54.137 Q 248.673 54.137 249.07 54.117 Q 249.466 54.096 249.876 54.035 Q 250.286 53.973 250.683 53.85 Q 251.079 53.727 251.387 53.515 Q 251.695 53.303 251.879 52.982 Q 252.064 52.661 252.064 52.21 Q 252.064 51.745 251.824 51.396 Q 251.585 51.048 251.202 50.788 Q 250.82 50.528 250.327 50.35 Q 249.835 50.173 249.336 50.036 Q 248.837 49.899 248.372 49.797 Q 247.907 49.694 247.566 49.598 Q 246.937 49.421 246.24 49.236 Q 245.542 49.051 244.859 48.812 Q 244.175 48.573 243.553 48.245 Q 242.931 47.917 242.459 47.459 Q 241.988 47.001 241.707 46.379 Q 241.427 45.757 241.427 44.923 Q 241.427 43.391 242.035 42.359 Q 242.644 41.327 243.642 40.705 Q 244.64 40.083 245.911 39.823 Q 247.183 39.563 248.495 39.563 Q 249.398 39.563 250.396 39.748 Q 251.394 39.932 252.337 40.295 Q 253.281 40.657 254.101 41.176 Q 254.921 41.696 255.468 42.366 L 252.775 44.581 Q 252.474 43.76 251.989 43.173 Q 251.503 42.585 250.936 42.209 Q 250.368 41.833 249.774 41.655 Q 249.179 41.477 248.673 41.477 Q 248.181 41.477 247.566 41.518 Q 246.95 41.559 246.41 41.751 Q 245.87 41.942 245.494 42.332 Q 245.118 42.721 245.118 43.405 Q 245.118 43.897 245.344 44.246 Q 245.57 44.594 245.939 44.847 Q 246.308 45.1 246.78 45.271 Q 247.251 45.442 247.743 45.572 Q 248.236 45.702 248.7 45.798 Q 249.165 45.893 249.534 46.003 Q 250.163 46.18 250.867 46.365 Q 251.572 46.549 252.255 46.789 Q 252.939 47.028 253.574 47.349 Q 254.21 47.671 254.689 48.135 Q 255.167 48.6 255.454 49.222 Q 255.741 49.844 255.741 50.692 Z" style="fill: rgb(255, 255, 255);"/>
  <path d="M 54.3 57.405 C 54.367 57.471 54.135 57.361 54.131 57.357 C 53.738 56.899 53.096 56.273 51.597 55.263 C 49.299 53.714 46.651 52.578 43.904 51.953 C 42.7 51.68 41.702 51.418 40.726 51.112 C 36.628 49.818 32.883 47.683 30.319 45.19 C 29.554 44.444 29.437 44.266 29.214 43.414 C 28.596 41.054 28.005 34.594 28.351 33.948 C 28.54 33.596 29.226 34.109 29.756 34.989 C 30.158 35.648 30.424 36.445 30.748 37.894 C 31.484 41.226 32.124 42.638 33.189 43.279 C 33.976 43.748 35.854 44.348 38.748 45.068 C 40.318 45.452 41.011 45.609 41.049 45.575 C 41.06 45.564 40.961 45.492 40.826 45.414 C 40.275 45.101 38.864 44.305 38.133 43.896 C 36.143 42.788 35.72 42.498 34.9 41.673 C 34.281 41.043 33.964 40.542 33.993 40.229 C 34.008 40.068 34.026 40.051 34.227 40.035 C 34.543 40.007 35.158 40.229 36.379 40.803 C 37.292 41.233 38.48 41.735 39.807 42.253 C 42.108 43.145 42.827 43.447 44.099 44.059 C 46.445 45.197 47.873 46.171 49.418 47.716 C 52.265 50.559 53.832 53.475 54.173 56.574 L 54.238 57.215 L 54.311 56.59 C 54.635 53.709 55.923 51.123 58.403 48.407 C 60.732 45.854 62.917 44.504 67.819 42.588 C 70.221 41.646 71.085 41.288 72.088 40.81 C 73.336 40.219 73.918 40.011 74.246 40.035 C 74.464 40.051 74.48 40.062 74.497 40.229 C 74.535 40.636 73.856 41.539 72.98 42.242 C 72.216 42.855 71.67 43.177 67.835 45.302 C 67.639 45.408 67.471 45.52 67.45 45.548 C 67.412 45.615 67.384 45.615 67.935 45.492 C 71.151 44.766 73.918 43.965 74.999 43.435 C 76.337 42.782 77.023 41.345 77.847 37.431 C 78.119 36.122 78.5 35.213 79.062 34.499 C 79.34 34.138 79.748 33.836 79.948 33.836 C 80.187 33.836 80.222 34.002 80.216 35.145 C 80.204 37.704 79.687 41.981 79.184 43.669 C 78.984 44.331 78.85 44.532 78.137 45.218 C 75.644 47.622 72.088 49.672 68.181 50.961 C 66.915 51.378 66.324 51.541 64.724 51.919 C 64.021 52.087 63.118 52.327 62.717 52.454 C 59.992 53.335 57.426 54.7 55.388 56.363 C 54.539 57.053 54.238 57.344 54.3 57.405 Z" stroke="none" style="fill: rgb(255, 255, 255);"/>
  <path d="M 65.199 33.05 C 65.199 33.155 64.205 33.841 63.693 34.092 C 63.047 34.41 62.094 34.728 61.24 34.918 C 60.661 35.045 58.748 35.336 57.328 35.508 C 57.027 35.547 56.78 35.604 56.78 35.631 C 56.78 35.658 56.864 35.943 56.97 36.26 C 57.171 36.868 57.393 37.787 57.516 38.545 C 57.627 39.231 57.612 41.205 57.489 41.862 C 57.36 42.537 57.02 43.562 56.736 44.126 C 56.335 44.917 56.351 44.952 56.351 43.39 C 56.351 40.714 56.038 39.271 54.823 36.428 C 54.629 35.965 54.584 35.792 54.562 35.414 C 54.539 35.018 54.557 34.922 54.669 34.688 C 54.857 34.293 55.294 33.891 55.726 33.714 C 56.519 33.39 56.707 33.378 59.902 33.366 C 63.114 33.356 63.392 33.333 65.159 33.005 C 65.182 33.005 65.199 33.021 65.199 33.05 Z" stroke="none" style="fill: rgb(255, 255, 255);"/>
  <path d="M 46.748 32.944 C 48.128 33.216 49.289 33.775 50.382 34.684 C 53.759 37.492 55.538 43.597 54.662 49.394 C 54.511 50.38 54.21 51.624 54.16 51.472 C 54.133 51.411 53.976 50.699 53.803 49.884 C 52.254 42.648 51.496 40.352 49.84 37.877 C 48.362 35.675 46.29 34.081 43.793 33.228 C 43.503 33.128 43.24 33.028 43.218 33 C 43.168 32.955 43.373 32.921 44.149 32.827 C 44.801 32.754 46.094 32.81 46.748 32.944 Z" stroke="none" style="fill: rgb(255, 255, 255);"/>
  <path d="M 54.618 27.263 C 55.71 27.493 56.613 28.64 56.613 29.8 C 56.613 30.462 56.218 31.455 55.693 32.118 C 55.381 32.503 54.88 32.849 54.489 32.944 C 53.069 33.289 51.396 30.893 51.848 29.153 C 52.088 28.223 52.795 27.503 53.688 27.28 C 54.043 27.191 54.255 27.185 54.618 27.263 Z" stroke="none" style="fill: rgb(255, 255, 255);"/>
  <path d="M 55.131 6.092 C 60.188 11.76 63.977 17.319 66.342 22.542 C 66.57 23.044 66.948 23.94 67.189 24.537 C 67.423 25.129 67.634 25.636 67.663 25.664 C 67.69 25.697 68.036 25.618 68.504 25.484 C 71.961 24.476 76.666 23.645 81.119 23.244 C 83.672 23.016 88.065 22.876 90.596 22.937 C 92.224 22.977 92.24 22.977 92.24 23.098 C 92.24 23.45 92.051 25.546 91.927 26.588 C 90.658 37.369 87.976 45.704 83.75 52.037 C 82.417 54.032 81.633 55.035 80.534 56.14 C 79.068 57.611 77.623 58.636 75.668 59.595 C 74.769 60.041 74.781 60.041 76.297 59.691 C 78.071 59.282 79.625 58.833 83.711 57.555 C 88.26 56.134 89.853 55.727 92.157 55.387 C 93.69 55.163 94.61 55.102 96.339 55.109 C 98.104 55.109 99.292 55.203 100.67 55.443 C 101.483 55.581 102.955 55.916 102.921 55.95 C 102.909 55.961 102.169 56.156 101.266 56.385 C 96.21 57.655 93.717 58.531 87.919 61.083 C 84.291 62.678 82.468 63.375 79.67 64.245 C 77.612 64.88 76.231 65.17 74.179 65.399 C 73.316 65.493 69.591 65.493 68.688 65.399 C 65.198 65.018 62.506 64.288 60.019 63.046 C 57.6 61.837 55.566 60.086 54.501 58.308 C 54.072 57.589 54.244 57.79 54.306 57.851 C 54.373 57.917 55.661 58.336 56.63 58.609 C 60.249 59.63 64.051 59.941 67.49 59.5 C 71.797 58.954 75.567 57.081 78.175 54.189 C 79.068 53.202 79.72 52.282 80.807 50.481 C 83.534 45.977 85.562 40.223 86.995 32.943 C 87.463 30.563 88.042 26.99 87.965 26.923 C 87.865 26.833 83.632 27.281 81.593 27.598 C 77.401 28.25 73.7 29.141 70.277 30.318 C 69.653 30.535 69.119 30.736 69.09 30.764 C 69.05 30.803 69.067 31.015 69.129 31.393 C 69.324 32.626 69.391 33.417 69.424 34.905 C 69.452 36.355 69.396 37.733 69.278 38.379 C 69.234 38.641 69.251 38.68 68.967 37.654 C 67.143 31.077 63.566 24.687 57.334 16.895 C 56.307 15.612 54.229 13.099 54.194 13.099 C 54.172 13.099 52.466 15.144 51.597 16.22 C 44.952 24.432 41.206 31.031 39.366 37.76 C 39.26 38.156 39.16 38.49 39.149 38.502 C 39.055 38.596 38.938 36.941 38.938 35.48 C 38.938 34.013 38.988 33.29 39.182 31.911 C 39.25 31.45 39.304 30.998 39.304 30.908 L 39.31 30.743 L 38.229 30.362 C 34.076 28.913 29.093 27.816 23.981 27.23 C 22.18 27.019 20.479 26.872 20.425 26.923 C 20.374 26.969 20.542 28.137 20.92 30.373 C 22.492 39.688 24.856 46.456 28.385 51.791 C 29.294 53.158 29.823 53.82 30.804 54.796 C 33.497 57.482 36.942 59.031 41.401 59.573 C 42.416 59.696 45.409 59.713 46.474 59.601 C 48.939 59.344 51.195 58.854 53.547 58.057 C 53.871 57.951 54.139 57.867 54.143 57.877 C 54.172 57.906 53.72 58.592 53.37 59.055 C 52.901 59.673 51.915 60.683 51.239 61.223 C 48.659 63.307 44.924 64.74 40.676 65.276 C 39.404 65.432 38.308 65.499 36.803 65.499 C 33.942 65.499 31.713 65.158 28.886 64.3 C 25.959 63.408 23.831 62.582 19.494 60.66 C 14.811 58.586 11.605 57.482 6.894 56.324 C 5.273 55.926 5.38 55.961 5.585 55.9 C 6.522 55.627 8.138 55.336 9.459 55.203 C 10.603 55.085 13.323 55.074 14.448 55.174 C 17.514 55.454 19.655 55.961 25.319 57.75 C 27.979 58.592 29.449 59.027 30.782 59.368 C 32.109 59.707 33.251 59.951 33.29 59.914 C 33.306 59.901 33.033 59.753 32.688 59.584 C 29.924 58.247 27.866 56.501 25.871 53.815 C 24.489 51.958 23.39 50.164 22.254 47.911 C 19.075 41.628 17.146 34.12 16.259 24.56 C 16.199 23.885 16.148 23.255 16.148 23.155 L 16.148 22.977 L 17.794 22.937 C 19.61 22.893 23.329 22.977 25.347 23.105 C 30.586 23.445 35.565 24.265 39.969 25.513 C 40.381 25.63 40.698 25.691 40.727 25.664 C 40.749 25.636 40.849 25.384 40.943 25.101 C 41.418 23.723 42.693 20.992 43.743 19.119 C 46.139 14.822 49.267 10.546 53.313 6.03 C 53.788 5.501 54.194 5.082 54.223 5.099 C 54.25 5.115 54.657 5.563 55.131 6.092 Z" stroke="none" style="fill: rgb(255, 255, 255);"/>
</svg>